<svg id="Layer_3" enable-background="new 0 0 64 64" height="512" viewBox="0 0 64 64" width="512" xmlns="http://www.w3.org/2000/svg"><g><path d="m55 3h-18c-1.302 0-2.402.839-2.816 2h-10.184v-3c0-.552-.447-1-1-1h-8c-.553 0-1 .448-1 1v3h-1c-1.654 0-3 1.346-3 3v28c0 1.654 1.346 3 3 3h10v3c0 .552.447 1 1 1h3v7h-1c-.553 0-1 .448-1 1v12h2v-11h10v11h2v-12c0-.552-.447-1-1-1h-1v-7h3c.553 0 1-.448 1-1v-3h12c1.654 0 3-1.346 3-3v-9.184c1.161-.414 2-1.514 2-2.816v-18c0-1.654-1.346-3-3-3zm-39 0h6v2h-6zm19 47h-6v-7h6zm4-9h-14v-2h14zm14-4h-40c-.552 0-1-.449-1-1v-28c0-.551.448-1 1-1h21v17c0 1.654 1.346 3 3 3h17v9c0 .551-.448 1-1 1zm3-13c0 .551-.448 1-1 1h-18c-.552 0-1-.449-1-1v-18c0-.551.448-1 1-1h18c.552 0 1 .449 1 1z"/><path d="m53 7h-14c-.553 0-1 .448-1 1v14c0 .552.447 1 1 1h14c.553 0 1-.448 1-1v-14c0-.552-.447-1-1-1zm-1 14h-12v-12h12z"/><path d="m46 19c2.206 0 4-1.794 4-4s-1.794-4-4-4-4 1.794-4 4 1.794 4 4 4zm0-6c1.103 0 2 .897 2 2s-.897 2-2 2-2-.897-2-2 .897-2 2-2z"/><path d="m15 27h16c.553 0 1-.448 1-1v-16c0-.552-.447-1-1-1h-16c-.553 0-1 .448-1 1v16c0 .552.447 1 1 1zm1-16h14v14h-14z"/><path d="m17 29c-1.654 0-3 1.346-3 3s1.346 3 3 3 3-1.346 3-3-1.346-3-3-3zm0 4c-.552 0-1-.449-1-1s.448-1 1-1 1 .449 1 1-.448 1-1 1z"/><path d="m25 29c-1.654 0-3 1.346-3 3s1.346 3 3 3 3-1.346 3-3-1.346-3-3-3zm0 4c-.552 0-1-.449-1-1s.448-1 1-1 1 .449 1 1-.448 1-1 1z"/><path d="m33 29c-1.654 0-3 1.346-3 3s1.346 3 3 3 3-1.346 3-3-1.346-3-3-3zm0 4c-.552 0-1-.449-1-1s.448-1 1-1 1 .449 1 1-.448 1-1 1z"/><path d="m51 29h-12c-.553 0-1 .448-1 1v4c0 .552.447 1 1 1h12c.553 0 1-.448 1-1v-4c0-.552-.447-1-1-1zm-1 4h-10v-2h10z"/><path d="m32 54c-1.654 0-3 1.346-3 3s1.346 3 3 3 3-1.346 3-3-1.346-3-3-3zm0 4c-.552 0-1-.449-1-1s.448-1 1-1 1 .449 1 1-.448 1-1 1z"/><path d="m18 14v3h2v-2h2v-2h-3c-.553 0-1 .448-1 1z"/><path d="m27 13h-3v2h2v2h2v-3c0-.552-.447-1-1-1z"/><path d="m20 19h-2v3c0 .552.447 1 1 1h3v-2h-2z"/><path d="m26 21h-2v2h3c.553 0 1-.448 1-1v-3h-2z"/></g></svg>