<svg id="Layer_3" enable-background="new 0 0 64 64" height="512" viewBox="0 0 64 64" width="512" xmlns="http://www.w3.org/2000/svg"><g><path d="m2 29h60c.404 0 .77-.244.924-.617.155-.374.069-.804-.217-1.09l-9.82-9.82c.72-1.008 1.113-2.209 1.113-3.473 0-3.309-2.691-6-6-6-1.264 0-2.465.393-3.473 1.113l-7.82-7.82c-.187-.188-.441-.293-.707-.293h-3c-.266 0-.52.105-.707.293l-3.707 3.707h-1.586c-.266 0-.52.105-.707.293l-11.707 11.707h-2.586c-.266 0-.52.105-.707.293l-10 10c-.286.286-.372.716-.217 1.09.154.373.52.617.924.617zm46-19c2.206 0 4 1.794 4 4 0 .725-.206 1.413-.565 2.021l-5.457-5.457c.609-.358 1.297-.564 2.022-.564zm-20.586-3h1.586c.266 0 .52-.105.707-.293l3.707-3.707h2.172l24 24h-9.172l-9.707-9.707c-.187-.188-.441-.293-.707-.293h-3.586l-3.707-3.707c-.187-.188-.441-.293-.707-.293h-4c-.266 0-.52.105-.707.293l-3.707 3.707h-6.172zm-15 12h7.586v1.586l-2.707 2.707 1.414 1.414 1.293-1.293 1.293 1.293c.187.188.441.293.707.293h4v-2h-3.586l-1-1 .293-.293c.188-.187.293-.442.293-.707v-2h2c.266 0 .52-.105.707-.293l3.707-3.707h3.172l3.707 3.707c.187.188.441.293.707.293h3.586l-2 2h-3.586v2h3.586l1.707 1.707c.187.188.441.293.707.293h2v-2h-1.586l-1-1 1.586-1.586 6.586 6.586h-43.172z"/><path d="m62 51h-8v-2.132c.325.085.66.132 1 .132 2.206 0 4-1.794 4-4 0-1.091-.452-2.12-1.225-2.863.148-.357.225-.742.225-1.137 0-1.306-.839-2.419-2.005-2.831.003-.056.005-.112.005-.169 0-1.654-1.346-3-3-3s-3 1.346-3 3c0 .057.002.113.005.169-1.166.412-2.005 1.525-2.005 2.831 0 .395.077.78.225 1.137-.773.743-1.225 1.772-1.225 2.863 0 2.206 1.794 4 4 4 .34 0 .675-.047 1-.132v2.132h-12v-4.132c.325.085.66.132 1 .132 2.206 0 4-1.794 4-4 0-1.091-.452-2.12-1.225-2.863.148-.357.225-.742.225-1.137 0-1.306-.839-2.419-2.005-2.831.003-.056.005-.112.005-.169 0-1.654-1.346-3-3-3s-3 1.346-3 3c0 .057.002.113.005.169-1.166.412-2.005 1.525-2.005 2.831 0 .395.077.78.225 1.137-.773.743-1.225 1.772-1.225 2.863 0 2.206 1.794 4 4 4 .34 0 .675-.047 1-.132v4.132h-12v-2.132c.325.085.66.132 1 .132 2.206 0 4-1.794 4-4 0-1.091-.452-2.12-1.225-2.863.148-.357.225-.742.225-1.137 0-1.306-.839-2.419-2.005-2.831.003-.056.005-.112.005-.169 0-1.654-1.346-3-3-3s-3 1.346-3 3c0 .057.002.113.005.169-1.166.412-2.005 1.525-2.005 2.831 0 .395.077.78.225 1.137-.773.743-1.225 1.772-1.225 2.863 0 2.206 1.794 4 4 4 .34 0 .675-.047 1-.132v2.132h-12v-4.132c.325.085.66.132 1 .132 2.206 0 4-1.794 4-4 0-1.091-.452-2.12-1.225-2.863.148-.357.225-.742.225-1.137 0-1.306-.839-2.419-2.005-2.831.003-.056.005-.112.005-.169 0-1.654-1.346-3-3-3s-3 1.346-3 3c0 .057.002.113.005.169-1.166.412-2.005 1.525-2.005 2.831 0 .395.077.78.225 1.137-.773.743-1.225 1.772-1.225 2.863 0 2.206 1.794 4 4 4 .34 0 .675-.047 1-.132v4.132h-8c-.553 0-1 .448-1 1v10c0 .347.18.668.475.851.294.182.662.197.973.044l2.211-1.105c2.064-1.032 4.619-1.032 6.684 0l.421.21c2.617 1.309 5.855 1.309 8.473 0l.422-.211c2.064-1.032 4.619-1.032 6.684 0l.421.211c2.617 1.309 5.855 1.309 8.473 0l.422-.211c2.064-1.032 4.619-1.032 6.684 0l.421.211c2.617 1.309 5.855 1.309 8.473 0l.422-.211c2.064-1.032 4.619-1.032 6.684 0l2.211 1.105c.14.071.293.106.446.106.183 0 .365-.05.525-.149.295-.183.475-.504.475-.851v-10c0-.552-.447-1-1-1zm-13-6c0-.719.399-1.386 1.044-1.741.271-.15.459-.418.505-.726.047-.308-.052-.619-.268-.843-.181-.189-.281-.434-.281-.69 0-.598.49-1.081 1.142-.982.39.061.767-.109.982-.432s.226-.74.025-1.072c-.098-.165-.149-.338-.149-.514 0-.551.448-1 1-1s1 .449 1 1c0 .176-.051.349-.149.514-.2.332-.188.75.028 1.072.217.322.599.489.985.432.577-.087 1.136.384 1.136.982 0 .256-.1.501-.281.69-.216.224-.314.536-.268.843s.233.576.505.726c.645.355 1.044 1.022 1.044 1.741 0 1.103-.897 2-2 2-.485 0-.957-.185-1.331-.521-.189-.171-.43-.257-.669-.257s-.479.085-.669.257c-.374.336-.846.521-1.331.521-1.103 0-2-.897-2-2zm-14-2c0-.719.399-1.386 1.044-1.741.271-.15.459-.418.505-.726.047-.308-.052-.619-.268-.843-.181-.189-.281-.434-.281-.69 0-.599.491-1.076 1.142-.982.39.061.767-.109.982-.432s.226-.74.025-1.072c-.098-.165-.149-.338-.149-.514 0-.551.448-1 1-1s1 .449 1 1c0 .176-.051.349-.149.514-.2.332-.188.75.028 1.072s.601.491.985.432c.577-.082 1.136.384 1.136.982 0 .256-.1.501-.281.69-.216.224-.314.536-.268.843s.233.576.505.726c.645.355 1.044 1.022 1.044 1.741 0 1.103-.897 2-2 2-.485 0-.957-.185-1.331-.521-.189-.171-.43-.257-.669-.257s-.479.085-.669.257c-.374.336-.846.521-1.331.521-1.103 0-2-.897-2-2zm-14 2c0-.719.399-1.386 1.044-1.741.271-.15.459-.418.505-.726.047-.308-.052-.619-.268-.843-.181-.189-.281-.434-.281-.69 0-.598.492-1.081 1.142-.982.39.061.767-.109.982-.432s.226-.74.025-1.072c-.098-.165-.149-.338-.149-.514 0-.551.448-1 1-1s1 .449 1 1c0 .176-.051.349-.149.514-.2.332-.188.75.028 1.072s.599.489.985.432c.578-.087 1.136.384 1.136.982 0 .256-.1.501-.281.69-.216.224-.314.536-.268.843s.233.576.505.726c.645.355 1.044 1.022 1.044 1.741 0 1.103-.897 2-2 2-.485 0-.957-.185-1.331-.521-.189-.171-.43-.257-.669-.257s-.479.085-.669.257c-.374.336-.846.521-1.331.521-1.103 0-2-.897-2-2zm-14-2c0-.719.399-1.386 1.044-1.741.271-.15.459-.418.505-.726.047-.308-.052-.619-.268-.843-.181-.189-.281-.434-.281-.69 0-.599.493-1.076 1.142-.982.387.061.767-.109.982-.432s.226-.74.025-1.072c-.098-.165-.149-.338-.149-.514 0-.551.448-1 1-1s1 .449 1 1c0 .176-.051.349-.149.514-.2.332-.188.75.028 1.072s.6.491.985.432c.579-.082 1.136.384 1.136.982 0 .256-.1.501-.281.69-.216.224-.314.536-.268.843s.233.576.505.726c.645.355 1.044 1.022 1.044 1.741 0 1.103-.897 2-2 2-.485 0-.957-.185-1.331-.521-.189-.171-.43-.257-.669-.257s-.479.085-.669.257c-.374.336-.846.521-1.331.521-1.103 0-2-.897-2-2zm54 10v3.382l-.764-.382c-2.617-1.309-5.855-1.309-8.473 0l-.422.211c-2.064 1.032-4.619 1.032-6.684 0l-.421-.211c-2.617-1.309-5.855-1.309-8.473 0l-.422.211c-2.064 1.032-4.619 1.032-6.684 0l-.421-.211c-2.617-1.309-5.855-1.309-8.473 0l-.422.211c-2.064 1.032-4.619 1.032-6.684 0l-.421-.211c-2.617-1.309-5.855-1.309-8.473 0l-.763.382v-3.382zm-.764 7c-2.617-1.309-5.855-1.309-8.473 0l-.422.211c-2.064 1.032-4.619 1.032-6.684 0l-.421-.211c-1.309-.654-2.773-1-4.236-1s-2.928.346-4.236 1l-.422.211c-2.064 1.032-4.619 1.032-6.684 0l-.422-.211c-2.617-1.309-5.855-1.309-8.473 0l-.422.211c-2.064 1.032-4.619 1.032-6.684 0l-.421-.211c-2.617-1.309-5.855-1.309-8.473 0l-.763.382v-1.764l1.658-.829c2.064-1.032 4.619-1.032 6.684 0l.422.211c2.617 1.309 5.855 1.309 8.473 0l.422-.211c2.064-1.032 4.619-1.032 6.684 0l.421.211c2.617 1.309 5.855 1.309 8.473 0l.422-.211c2.064-1.032 4.619-1.032 6.684 0l.421.211c1.309.654 2.773 1 4.236 1s2.928-.346 4.236-1l.422-.211c2.064-1.032 4.619-1.032 6.684 0l1.658.829v1.764z"/><path d="m53.586 6h2.828v2h-2.828z" transform="matrix(.707 -.707 .707 .707 11.159 40.941)"/><path d="m47 3h2v3h-2z"/><path d="m56 14h3v2h-3z"/></g></svg>