<svg id="Layer_3" enable-background="new 0 0 64 64" height="512" viewBox="0 0 64 64" width="512" xmlns="http://www.w3.org/2000/svg"><g><path d="m55 51v2c1.103 0 2 .897 2 2s-.897 2-2 2v2c2.206 0 4-1.794 4-4s-1.794-4-4-4z"/><path d="m41 51v2c1.103 0 2 .897 2 2s-.897 2-2 2v2c2.206 0 4-1.794 4-4s-1.794-4-4-4z"/><path d="m55 47c-.712 0-1.4.103-2.058.278 1.859-1.466 3.058-3.733 3.058-6.278 0-2.373-1.045-4.502-2.692-5.969 1.107-2.173 1.692-4.584 1.692-7.031 0-4.137-1.61-8.024-4.535-10.949l-2.758-2.758c-.286-.285-.716-.372-1.09-.217-.374.154-.617.52-.617.924 0 2.796-1.389 5.391-3.715 6.941l-.316.211c-.123-1.855-.618-3.688-1.449-5.351-1.796-3.593-5.052-6.246-8.933-7.279l-9.329-2.488c-.435-.118-.897.074-1.124.467-.226.392-.161.887.159 1.206l3.758 3.758c1.257 1.257 1.949 2.929 1.949 4.707 0 1.87-.802 3.666-2.173 4.919-.494-2.719-2.03-5.179-4.314-6.811l-2.932-2.094c-.305-.219-.705-.247-1.039-.075-.333.171-.542.514-.542.889v3.007c0 1.663-.652 3.231-1.897 4.477-2.001 2-3.103 4.66-3.103 7.489v.105c0 1.713.408 3.383 1.176 4.897-2.486 1.359-4.176 3.998-4.176 7.025 0 2.39 1.059 4.533 2.726 6h-1.726c-4.411 0-8 3.589-8 8s3.589 8 8 8h18c3.01 0 5.635-1.673 7-4.136 1.365 2.463 3.99 4.136 7 4.136s5.635-1.673 7-4.136c1.365 2.463 3.99 4.136 7 4.136 4.411 0 8-3.589 8-8s-3.589-8-8-8zm-21 2c.712 0 1.4-.103 2.058-.278-.835.659-1.539 1.477-2.058 2.414-.449-.809-1.036-1.529-1.726-2.136zm-6-8c0-3.309 2.691-6 6-6s6 2.691 6 6-2.691 6-6 6-6-2.691-6-6zm13 3.864c.519.936 1.222 1.755 2.058 2.414-.658-.175-1.346-.278-2.058-.278s-1.4.103-2.058.278c.836-.659 1.539-1.477 2.058-2.414zm13-3.864c0 3.309-2.691 6-6 6s-6-2.691-6-6 2.691-6 6-6 6 2.691 6 6zm-3.942 7.722c-.835.659-1.539 1.477-2.058 2.414-.519-.936-1.222-1.755-2.058-2.414.658.175 1.346.278 2.058.278s1.4-.103 2.058-.278zm-37.058-19.644v-.105c0-2.295.894-4.452 2.577-6.136 1.563-1.563 2.423-3.633 2.423-5.83v-1.063l1.351.964c2.285 1.632 3.649 4.284 3.649 7.092 0 .379.214.725.553.895.339.169.745.134 1.047-.095l.938-.703c2.168-1.627 3.462-4.215 3.462-6.925 0-2.312-.9-4.486-2.535-6.121l-1.125-1.125 5.731 1.528c3.328.887 6.119 3.162 7.659 6.242.83 1.662 1.27 3.521 1.27 5.379v.925c0 .369.203.708.528.882.324.174.721.154 1.026-.05l1.84-1.227c2.266-1.511 3.814-3.821 4.374-6.423l1.282 1.282c2.548 2.548 3.95 5.934 3.95 9.536 0 2.042-.47 4.055-1.358 5.886-1.094-.562-2.33-.886-3.642-.886-3.01 0-5.635 1.673-7 4.136-1.365-2.463-3.99-4.136-7-4.136h-18c-.667 0-1.312.091-1.932.246-.687-1.283-1.068-2.703-1.068-4.168zm-3 11.922c0-3.309 2.691-6 6-6h12.726c-1.667 1.467-2.726 3.61-2.726 6 0 .692.097 1.359.263 2h-5.263v2h6.082c.437.753.994 1.428 1.644 2h-1.726-11c-3.309 0-6-2.691-6-6zm-1 20c-3.309 0-6-2.691-6-6s2.691-6 6-6h7 5.726c-1.667 1.467-2.726 3.61-2.726 6 0 .692.097 1.359.263 2h-5.263v2h6.082c.437.753.994 1.428 1.644 2zm18 0c-3.309 0-6-2.691-6-6s2.691-6 6-6 6 2.691 6 6-2.691 6-6 6zm14 0c-3.309 0-6-2.691-6-6s2.691-6 6-6 6 2.691 6 6-2.691 6-6 6zm14 0c-3.309 0-6-2.691-6-6s2.691-6 6-6 6 2.691 6 6-2.691 6-6 6z"/><path d="m27 51v2c1.103 0 2 .897 2 2s-.897 2-2 2v2c2.206 0 4-1.794 4-4s-1.794-4-4-4z"/><path d="m11 51h6v2h-6z"/><path d="m8 57h4v2h-4z"/><path d="m48 37v2c1.103 0 2 .897 2 2s-.897 2-2 2v2c2.206 0 4-1.794 4-4s-1.794-4-4-4z"/><path d="m34 37v2c1.103 0 2 .897 2 2s-.897 2-2 2v2c2.206 0 4-1.794 4-4s-1.794-4-4-4z"/><path d="m15 43h4v2h-4z"/><path d="m58.586 8c.267.268.414.622.414 1s-.147.732-.414 1l-1.293 1.293 1.414 1.414 1.293-1.293c.645-.644 1-1.502 1-2.414s-.355-1.77-1-2.414l-.586-.586c-.267-.268-.414-.622-.414-1s.147-.732.414-1l1.293-1.293-1.414-1.414-1.293 1.293c-.645.644-1 1.502-1 2.414s.355 1.77 1 2.414z"/><path d="m51.586 10c.267.268.414.622.414 1s-.147.732-.414 1l-1.293 1.293 1.414 1.414 1.293-1.293c.645-.645 1-1.502 1-2.414s-.355-1.77-1-2.414l-.586-.586c-.267-.268-.414-.622-.414-1s.147-.732.414-1l1.293-1.293-1.414-1.414-1.293 1.293c-.645.644-1 1.502-1 2.414s.355 1.77 1 2.414z"/><path d="m4 6.586c-.645.644-1 1.502-1 2.414s.355 1.77 1 2.414l1.293 1.293 1.414-1.414-1.293-1.293c-.267-.268-.414-.622-.414-1s.147-.732.414-1l.586-.586c.645-.644 1-1.502 1-2.414s-.355-1.77-1-2.414l-1.293-1.293-1.414 1.414 1.293 1.293c.267.268.414.622.414 1s-.147.732-.414 1z"/><path d="m11 8.586c-.645.644-1 1.502-1 2.414s.355 1.77 1 2.414l1.293 1.293 1.414-1.414-1.293-1.293c-.267-.268-.414-.622-.414-1s.147-.732.414-1l.586-.586c.645-.644 1-1.502 1-2.414s-.355-1.77-1-2.414l-1.293-1.293-1.414 1.414 1.293 1.293c.267.268.414.622.414 1s-.147.732-.414 1z"/></g></svg>