<svg id="Layer_3" enable-background="new 0 0 64 64" height="512" viewBox="0 0 64 64" width="512" xmlns="http://www.w3.org/2000/svg"><g><path d="m62.707 61.293-3.707-3.707v-44.586c0-.553-.448-1-1-1h-16.631l-5.896-5.054c.326-.579.527-1.236.527-1.946 0-2.206-1.794-4-4-4s-4 1.794-4 4c0 .71.201 1.367.527 1.946l-5.896 5.054h-16.631c-.552 0-1 .447-1 1v44.586l-3.707 3.707c-.286.286-.372.716-.217 1.09s.52.617.924.617h60c.404 0 .769-.243.924-.617s.069-.804-.217-1.09zm-30.707-58.293c1.103 0 2 .897 2 2s-.897 2-2 2-2-.897-2-2 .897-2 2-2zm-2.091 5.394c.611.378 1.322.606 2.091.606s1.48-.228 2.091-.606l4.206 3.606h-12.594zm27.091 5.606v6h-50v-6zm-50 8h50v33.586l-10.126-10.126c.074-.14.126-.291.126-.46v-4c0-.553-.448-1-1-1h-4c-.552 0-1 .447-1 1v.586l-1.293-1.293c-.187-.188-.442-.293-.707-.293h-4c-.265 0-.52.105-.707.293l-1.707 1.707h-1.586v-1c0-.553-.448-1-1-1h-4c-.552 0-1 .447-1 1v4c0 .169.052.32.126.46l-1.54 1.54h-1.586c-.265 0-.52.105-.707.293l-3.707 3.707h-3.586c-.265 0-.52.105-.707.293l-3.707 3.707h-1.586c-.265 0-.52.105-.707.293l-.293.293zm38 21.586-.293-.293c-.187-.188-.442-.293-.707-.293h-1v-1h2zm-16.707-1.293-1.293 1.293v-1.586h2c-.265 0-.52.105-.707.293zm-23.879 18.707 4-4h1.586c.265 0 .52-.105.707-.293l3.707-3.707h3.586c.265 0 .52-.105.707-.293l3.707-3.707h3.172l12 12zm36 0-13.707-13.707c-.102-.103-.224-.18-.356-.229l3.063-3.064h3.586c.265 0 .52-.105.707-.293l1.707-1.707h3.172l2.707 2.707c.187.188.442.293.707.293h1.586l16 16z"/><path d="m10 30h4c.552 0 1-.447 1-1v-4c0-.553-.448-1-1-1h-4c-.552 0-1 .447-1 1v4c0 .553.448 1 1 1zm1-4h2v2h-2z"/><path d="m18 30h4c.552 0 1-.447 1-1v-4c0-.553-.448-1-1-1h-4c-.552 0-1 .447-1 1v4c0 .553.448 1 1 1zm1-4h2v2h-2z"/><path d="m26 30h4c.552 0 1-.447 1-1v-4c0-.553-.448-1-1-1h-4c-.552 0-1 .447-1 1v4c0 .553.448 1 1 1zm1-4h2v2h-2z"/><path d="m34 30h4c.552 0 1-.447 1-1v-4c0-.553-.448-1-1-1h-4c-.552 0-1 .447-1 1v4c0 .553.448 1 1 1zm1-4h2v2h-2z"/><path d="m42 30h4c.552 0 1-.447 1-1v-4c0-.553-.448-1-1-1h-4c-.552 0-1 .447-1 1v4c0 .553.448 1 1 1zm1-4h2v2h-2z"/><path d="m10 38h4c.552 0 1-.447 1-1v-4c0-.553-.448-1-1-1h-4c-.552 0-1 .447-1 1v4c0 .553.448 1 1 1zm1-4h2v2h-2z"/><path d="m18 38h4c.552 0 1-.447 1-1v-4c0-.553-.448-1-1-1h-4c-.552 0-1 .447-1 1v4c0 .553.448 1 1 1zm1-4h2v2h-2z"/><path d="m10 46h4c.552 0 1-.447 1-1v-4c0-.553-.448-1-1-1h-4c-.552 0-1 .447-1 1v4c0 .553.448 1 1 1zm1-4h2v2h-2z"/><path d="m18 46h4c.552 0 1-.447 1-1v-4c0-.553-.448-1-1-1h-4c-.552 0-1 .447-1 1v4c0 .553.448 1 1 1zm1-4h2v2h-2z"/><path d="m26 38h4c.552 0 1-.447 1-1v-4c0-.553-.448-1-1-1h-4c-.552 0-1 .447-1 1v4c0 .553.448 1 1 1zm1-4h2v2h-2z"/><path d="m34 38h4c.552 0 1-.447 1-1v-4c0-.553-.448-1-1-1h-4c-.552 0-1 .447-1 1v4c0 .553.448 1 1 1zm1-4h2v2h-2z"/><path d="m42 38h4c.552 0 1-.447 1-1v-4c0-.553-.448-1-1-1h-4c-.552 0-1 .447-1 1v4c0 .553.448 1 1 1zm1-4h2v2h-2z"/><path d="m50 30h4c.552 0 1-.447 1-1v-4c0-.553-.448-1-1-1h-4c-.552 0-1 .447-1 1v4c0 .553.448 1 1 1zm1-4h2v2h-2z"/><path d="m50 38h4c.552 0 1-.447 1-1v-4c0-.553-.448-1-1-1h-4c-.552 0-1 .447-1 1v4c0 .553.448 1 1 1zm1-4h2v2h-2z"/><path d="m50 46h4c.552 0 1-.447 1-1v-4c0-.553-.448-1-1-1h-4c-.552 0-1 .447-1 1v4c0 .553.448 1 1 1zm1-4h2v2h-2z"/></g></svg>