<svg id="Layer_3" enable-background="new 0 0 64 64" height="512" viewBox="0 0 64 64" width="512" xmlns="http://www.w3.org/2000/svg"><g><path d="m39 48c0-3.859-3.14-7-7-7s-7 3.141-7 7 3.14 7 7 7 7-3.141 7-7zm-12 0c0-2.757 2.243-5 5-5s5 2.243 5 5-2.243 5-5 5-5-2.243-5-5z"/><path d="m58 5h-9v-3c0-.553-.448-1-1-1h-32c-.552 0-1 .447-1 1v3h-9c-2.757 0-5 2.243-5 5v36c0 1.654 1.346 3 3 3h1v3c0 .553.448 1 1 1h3v7c0 1.654 1.346 3 3 3h40c1.654 0 3-1.346 3-3v-7h3c.552 0 1-.447 1-1v-3h1c1.654 0 3-1.346 3-3v-36c0-2.757-2.243-5-5-5zm-41-.586 4.586 4.586h-4.586zm1.414-1.414h11.172l-5.586 5.586zm13.586.414 5.586 5.586h-11.172zm2.414-.414h11.172l-5.586 5.586zm12.586 1.414v4.586h-4.586zm-40 46.586v-6h2v6zm16-22v-12h18v12zm11 2v2h-4v-2zm18 4c.551 0 1 .448 1 1v3h-14.695c-1.787-1.256-3.959-2-6.305-2s-4.517.744-6.305 2h-14.695v-3c0-.552.449-1 1-1zm-29 13c0-4.963 4.038-9 9-9s9 4.037 9 9-4.038 9-9 9-9-4.037-9-9zm20 0c0-2.657-.947-5.097-2.521-7h12.521v14h-12.521c1.574-1.903 2.521-4.343 2.521-7zm8-15h-4v-1c0-.552.449-1 1-1h2c.551 0 1 .448 1 1zm-40 8h12.521c-1.574 1.903-2.521 4.343-2.521 7s.947 5.097 2.521 7h-12.521zm41 20h-40c-.551 0-1-.448-1-1v-3h14.695c1.787 1.256 3.959 2 6.305 2s4.517-.744 6.305-2h14.695v3c0 .552-.449 1-1 1zm5-10h-2v-6h2zm4-5c0 .552-.449 1-1 1h-1v-3c0-.553-.448-1-1-1h-3v-7c0-1.302-.839-2.402-2-2.816v-1.184c0-1.654-1.346-3-3-3h-2c-1.654 0-3 1.346-3 3v1h-9v-2h6c.552 0 1-.447 1-1v-14c0-.553-.448-1-1-1h-20c-.552 0-1 .447-1 1v14c0 .553.448 1 1 1h6v2h-16c-1.654 0-3 1.346-3 3v7h-3c-.552 0-1 .447-1 1v3h-1c-.551 0-1-.448-1-1v-36c0-1.654 1.346-3 3-3h9v3c0 .553.448 1 1 1h32c.552 0 1-.447 1-1v-3h9c1.654 0 3 1.346 3 3z"/><path d="m38 19h-12c-.552 0-1 .447-1 1v6c0 .553.448 1 1 1h12c.552 0 1-.447 1-1v-6c0-.553-.448-1-1-1zm-1 6h-10v-4h10z"/></g></svg>