<svg id="Layer_3" enable-background="new 0 0 64 64" height="512" viewBox="0 0 64 64" width="512" xmlns="http://www.w3.org/2000/svg"><g><path d="m58.145 60.441-5.145-7.519v-18.286c.64.232 1.311.364 2 .364 3.309 0 6-2.691 6-6 0-.748-.148-1.494-.432-2.2 1.52-1.121 2.432-2.885 2.432-4.8 0-1.586-.617-3.068-1.718-4.183.472-.87.718-1.829.718-2.817 0-2.667-1.758-4.982-4.265-5.735-.753-2.507-3.068-4.265-5.735-4.265s-4.982 1.758-5.735 4.265c-2.507.753-4.265 3.068-4.265 5.735 0 .988.246 1.947.718 2.817-1.101 1.115-1.718 2.597-1.718 4.183 0 1.915.912 3.679 2.432 4.8-.284.706-.432 1.452-.432 2.2 0 3.309 2.691 6 6 6 .689 0 1.36-.132 2-.364v15.363l-18.175-26.563c-.373-.545-1.277-.545-1.65 0l-18.175 26.563v-11.363c.64.232 1.311.364 2 .364 3.309 0 6-2.691 6-6 0-.748-.148-1.494-.432-2.2 1.52-1.121 2.432-2.885 2.432-4.8 0-1.586-.617-3.068-1.718-4.183.472-.87.718-1.829.718-2.817 0-2.667-1.758-4.982-4.265-5.735-.753-2.507-3.068-4.265-5.735-4.265s-4.982 1.758-5.735 4.265c-2.507.753-4.265 3.068-4.265 5.735 0 .988.246 1.947.718 2.817-1.101 1.115-1.718 2.597-1.718 4.183 0 1.915.912 3.679 2.432 4.8-.284.706-.432 1.452-.432 2.2 0 3.309 2.691 6 6 6 .689 0 1.36-.132 2-.364v14.286l-5.145 7.519-3.148-3.148-1.414 1.414 4 4 .002-.002c.185.184.436.295.705.295h52c.269 0 .52-.111.705-.295l.002.002 4-4-1.414-1.414zm-9.145-27.441c-2.206 0-4-1.794-4-4 0-.715.198-1.406.587-2.052.143-.237.181-.523.105-.79s-.259-.49-.505-.616c-1.349-.693-2.187-2.05-2.187-3.542 0-1.262.591-2.427 1.622-3.196.214-.159.355-.397.393-.661.037-.264-.032-.531-.192-.744-.539-.711-.823-1.541-.823-2.399 0-1.925 1.376-3.576 3.273-3.925.408-.075.727-.394.802-.802.349-1.897 2-3.273 3.925-3.273s3.576 1.376 3.925 3.273c.075.408.394.727.802.802 1.897.349 3.273 2 3.273 3.925 0 .858-.284 1.688-.822 2.399-.161.212-.229.48-.192.744.038.264.179.502.393.661 1.03.769 1.621 1.934 1.621 3.196 0 1.492-.838 2.849-2.188 3.542-.246.126-.429.35-.505.616s-.038.552.105.79c.39.646.588 1.337.588 2.052 0 2.206-1.794 4-4 4-.704 0-1.384-.201-2-.566v-3.02l3.707-3.707-1.414-1.414-2.293 2.293v-7.172l3.707-3.707-1.414-1.414-2.293 2.293v-2.586h-2v7.586l-2.293-2.293-1.414 1.414 3.707 3.707v8.02c-.616.365-1.296.566-2 .566zm-40 4c-2.206 0-4-1.794-4-4 0-.715.198-1.406.587-2.052.143-.237.181-.523.105-.79s-.259-.49-.505-.616c-1.349-.693-2.187-2.05-2.187-3.542 0-1.262.591-2.427 1.622-3.196.214-.159.355-.397.393-.661.037-.264-.032-.531-.192-.744-.539-.711-.823-1.541-.823-2.399 0-1.925 1.376-3.576 3.273-3.925.408-.075.727-.394.802-.802.349-1.897 2-3.273 3.925-3.273s3.576 1.376 3.925 3.273c.075.408.394.727.802.802 1.897.349 3.273 2 3.273 3.925 0 .858-.284 1.688-.822 2.399-.161.212-.229.48-.192.744.038.264.179.502.393.661 1.03.769 1.621 1.934 1.621 3.196 0 1.492-.838 2.849-2.188 3.542-.246.126-.429.35-.505.616s-.038.552.105.79c.39.646.588 1.337.588 2.052 0 2.206-1.794 4-4 4-.704 0-1.384-.201-2-.566v-3.02l3.707-3.707-1.414-1.414-2.293 2.293v-7.172l3.707-3.707-1.414-1.414-2.293 2.293v-2.586h-2v7.586l-2.293-2.293-1.414 1.414 3.707 3.707v8.02c-.616.365-1.296.566-2 .566zm22 19.414v4.586h-4.586zm-6 3.172v-4.586h4.586zm8-22.332 16.113 23.746h-16.113zm-2 15.746h-7c-.552 0-1 .448-1 1v7h-8.113l16.113-23.746zm20.53 8-18.702-27.562c-.372-.549-1.283-.549-1.655 0l-18.703 27.562h-4.574l24.104-35.229 24.104 35.229z"/><path d="m32 15c3.86 0 7-3.14 7-7s-3.14-7-7-7-7 3.14-7 7 3.14 7 7 7zm0-12c2.757 0 5 2.243 5 5s-2.243 5-5 5-5-2.243-5-5 2.243-5 5-5z"/></g></svg>