<svg id="Layer_3" enable-background="new 0 0 64 64" height="512" viewBox="0 0 64 64" width="512" xmlns="http://www.w3.org/2000/svg"><g><path d="m62 15h-17.586l-7.707-7.707c-.187-.188-.441-.293-.707-.293h-3c-.266 0-.52.105-.707.293l-3.707 3.707h-1.586c-.266 0-.52.105-.707.293l-11.707 11.707h-2.586c-.266 0-.52.105-.707.293l-10 10c-.286.286-.372.716-.217 1.09.154.374.52.617.924.617h39v.172c0 1.534-.622 3.036-1.707 4.121s-2.587 1.707-4.121 1.707h-7.172c-4.963 0-9 4.037-9 9v3.184c-1.161.414-2 1.514-2 2.816 0 1.654 1.346 3 3 3h1v3c0 .553.447 1 1 1h6c.553 0 1-.447 1-1v-3h2v3c0 .553.447 1 1 1h6c.553 0 1-.447 1-1v-3h2v3c0 .553.447 1 1 1h6c.553 0 1-.447 1-1v-3h2v3c0 .553.447 1 1 1h6c.553 0 1-.447 1-1v-3.184c1.161-.414 2-1.514 2-2.816v-6-25h1c.553 0 1-.447 1-1v-8c0-.553-.447-1-1-1zm-34.586-2h1.586c.266 0 .52-.105.707-.293l3.707-3.707h2.172l6 6h-1.586c-.553 0-1 .447-1 1v7h-2.586l-3.707-3.707c-.187-.188-.441-.293-.707-.293h-4c-.266 0-.52.105-.707.293l-3.707 3.707h-6.172zm15.357 24h2.229v-2h-2v-2h2v-2h-2v-2h2c1.103 0 2 .897 2 2v6c0 1.103-.897 2-2 2h-3.011c.351-.627.612-1.301.782-2zm-38.357-4 8-8h7.586v1.586l-2.707 2.707 1.414 1.414 1.293-1.293 1.293 1.293c.187.188.441.293.707.293h4v-2h-3.586l-1-1 .293-.293c.188-.187.293-.441.293-.707v-2h2c.266 0 .52-.105.707-.293l3.707-3.707h3.172l3.707 3.707c.187.188.441.293.707.293h4 1v8zm19.586 11.264v.615c0 1.635.637 3.172 1.793 4.328s2.693 1.793 4.328 1.793h3.758c1.085 0 2.146.44 2.914 1.207l.793.793h-16.586v-3c0-2.372 1.189-4.469 3-5.736zm3 16.736h-4v-2h4zm10 0h-4v-2h4zm10 0h-4v-2h4zm6 0v-2h4v2zm6-5c0 .552-.448 1-1 1h-38c-.552 0-1-.448-1-1s.448-1 1-1h26c.228 0 .447-.077.625-.219l4.726-3.781h7.649zm0-11h-3c-.552 0-1-.448-1-1v-4c0-.552.448-1 1-1h3zm0-8h-3c-1.654 0-3 1.346-3 3v4c0 1.654 1.346 3 3 3h3v2h-8c-.228 0-.447.077-.625.219l-4.726 3.781h-5.235l-2.207-2.207c-1.156-1.156-2.693-1.793-4.328-1.793h-3.758c-1.085 0-2.146-.44-2.914-1.207-.767-.768-1.207-1.829-1.207-2.914v-1.584c.634-.19 1.305-.295 2-.295h7.172c1.915 0 3.786-.729 5.211-2h4.617c2.206 0 4-1.794 4-4v-6c0-2.206-1.794-4-4-4h-2v-2h16zm2-14h-20v-6h20z"/><path d="m10 14c2.206 0 4-1.794 4-4s-1.794-4-4-4-4 1.794-4 4 1.794 4 4 4zm0-6c1.103 0 2 .897 2 2s-.897 2-2 2-2-.897-2-2 .897-2 2-2z"/><path d="m9 2h2v2h-2z"/><path d="m9 16h2v2h-2z"/><path d="m16 9h2v2h-2z"/><path d="m2 9h2v2h-2z"/><path d="m14 13.586h2v2.828h-2z" transform="matrix(.707 -.707 .707 .707 -6.213 15)"/><path d="m3.586 14h2.828v2h-2.828z" transform="matrix(.707 -.707 .707 .707 -9.142 7.929)"/><path d="m4 3.586h2v2.828h-2z" transform="matrix(.707 -.707 .707 .707 -2.071 5)"/><path d="m14.586 4h2.828v2h-2.828z" transform="matrix(.707 -.707 .707 .707 1.151 12.778)"/></g></svg>