<svg id="Layer_3" enable-background="new 0 0 64 64" height="512" viewBox="0 0 64 64" width="512" xmlns="http://www.w3.org/2000/svg"><g><path d="m44 19h-1v-3c0-.552-.448-1-1-1h-1v-11c0-1.654-1.346-3-3-3s-3 1.346-3 3v11h-1c-.552 0-1 .448-1 1v3h-6v-3c0-.552-.448-1-1-1h-4c-.552 0-1 .448-1 1v3h-1c-.552 0-1 .448-1 1v42c0 .552.448 1 1 1h24c.552 0 1-.448 1-1v-42c0-.552-.448-1-1-1zm-7-15c0-.551.449-1 1-1s1 .449 1 1v11h-2zm-2 13h6v2h-6zm-12 0h2v2h-2zm20 44h-22v-40h22z"/><path d="m24 35h16c.552 0 1-.448 1-1v-10c0-.552-.448-1-1-1h-16c-.552 0-1 .448-1 1v10c0 .552.448 1 1 1zm1-10h14v8h-14z"/><path d="m24 43h16c.552 0 1-.448 1-1v-4c0-.552-.448-1-1-1h-16c-.552 0-1 .448-1 1v4c0 .552.448 1 1 1zm7-2h-2v-2h2zm2-2h2v2h-2zm6 2h-2v-2h2zm-14-2h2v2h-2z"/><path d="m24 59h16c.552 0 1-.448 1-1v-12c0-.552-.448-1-1-1h-16c-.552 0-1 .448-1 1v12c0 .552.448 1 1 1zm1-12h14v10h-14z"/><path d="m27 49h2v2h-2z"/><path d="m31 49h2v2h-2z"/><path d="m35 49h2v2h-2z"/><path d="m27 53h2v2h-2z"/><path d="m31 53h2v2h-2z"/><path d="m35 53h2v2h-2z"/><path d="m50.293 33.879-.586-.586-1.414 1.414.586.586c.723.723 1.121 1.685 1.121 2.707s-.398 1.984-1.121 2.707l-.586.586 1.414 1.414.586-.586c1.101-1.1 1.707-2.564 1.707-4.121s-.606-3.021-1.707-4.121z"/><path d="m52.878 30.464-.171-.171-1.414 1.414.171.171c1.636 1.636 2.536 3.81 2.536 6.122s-.9 4.486-2.536 6.122l-.171.171 1.414 1.414.171-.171c2.014-2.013 3.122-4.689 3.122-7.536s-1.108-5.523-3.122-7.536z"/><path d="m15.707 34.707-1.414-1.414-.586.586c-1.101 1.1-1.707 2.564-1.707 4.121s.606 3.021 1.707 4.121l.586.586 1.414-1.414-.586-.586c-.723-.723-1.121-1.685-1.121-2.707s.398-1.984 1.121-2.707z"/><path d="m10 38c0-2.312.9-4.486 2.536-6.122l.171-.171-1.414-1.414-.171.171c-2.014 2.013-3.122 4.689-3.122 7.536s1.108 5.523 3.122 7.536l.171.171 1.414-1.414-.171-.171c-1.636-1.636-2.536-3.81-2.536-6.122z"/></g></svg>