<svg id="Layer_3" enable-background="new 0 0 64 64" height="512" viewBox="0 0 64 64" width="512" xmlns="http://www.w3.org/2000/svg"><g><path d="m62 25h-1v-1c0-1.654-1.346-3-3-3h-2c-1.654 0-3 1.346-3 3v1h-29c-.553 0-1 .447-1 1v1h-21c-.553 0-1 .447-1 1v24c0 .333.166.645.442.83.168.112.363.17.558.17.128 0 .257-.024.379-.074l22-9c.376-.155.621-.52.621-.926h3c1.654 0 3-1.346 3-3v-3h4v1c0 .553.447 1 1 1h22c.553 0 1-.447 1-1v-5h3c.553 0 1-.447 1-1v-6c0-.553-.447-1-1-1zm-7-1c0-.552.448-1 1-1h2c.552 0 1 .448 1 1v1h-4zm-28 3v4h-2v-4zm-4 15.329-20 8.182v-21.511h20v7zm6-2.329c0 .552-.448 1-1 1h-3v-2.586l1.293 1.293 1.414-1.414-1.293-1.293h2.586zm-4-5v-2h10v2zm32 2h-20v-6h20zm4-6h-2v-1c0-.553-.447-1-1-1h-22c-.553 0-1 .447-1 1v1h-6v-4h32z"/><path d="m49 41c-4.963 0-9 4.037-9 9s4.037 9 9 9 9-4.037 9-9-4.037-9-9-9zm1 15.92v-3.92h-2v3.92c-3.059-.441-5.479-2.861-5.92-5.92h3.92v-2h-3.92c.441-3.059 2.861-5.479 5.92-5.92v3.92h2v-3.92c3.059.441 5.479 2.861 5.92 5.92h-3.92v2h3.92c-.441 3.059-2.861 5.479-5.92 5.92z"/><path d="m15 23c4.963 0 9-4.037 9-9s-4.037-9-9-9-9 4.037-9 9 4.037 9 9 9zm-1-15.92v3.92h2v-3.92c3.059.441 5.479 2.861 5.92 5.92h-3.92v2h3.92c-.441 3.059-2.861 5.479-5.92 5.92v-3.92h-2v3.92c-3.059-.441-5.479-2.861-5.92-5.92h3.92v-2h-3.92c.441-3.059 2.861-5.479 5.92-5.92z"/></g></svg>