<svg id="Layer_3" enable-background="new 0 0 64 64" height="512" viewBox="0 0 64 64" width="512" xmlns="http://www.w3.org/2000/svg"><g><path d="m33 34v-3h3c.552 0 1-.448 1-1v-4c0-.552-.448-1-1-1h-3v-3c0-.552-.448-1-1-1h-4c-.552 0-1 .448-1 1v3h-3c-.552 0-1 .448-1 1v4c0 .552.448 1 1 1h3v3c0 .552.448 1 1 1h4c.552 0 1-.448 1-1zm-2-4v3h-2v-3c0-.552-.448-1-1-1h-3v-2h3c.552 0 1-.448 1-1v-3h2v3c0 .552.448 1 1 1h3v2h-3c-.552 0-1 .448-1 1z"/><path d="m62 39h-3v-29c0-.552-.448-1-1-1h-1v-1c0-1.654-1.346-3-3-3h-6c-1.654 0-3 1.346-3 3v1h-4v-3c0-2.757-2.243-5-5-5h-12c-2.757 0-5 2.243-5 5v3h-4v-1c0-1.654-1.346-3-3-3h-6c-1.654 0-3 1.346-3 3v1h-1c-.552 0-1 .448-1 1v36c0 .552.448 1 1 1h29v15c0 .552.448 1 1 1h30c.552 0 1-.448 1-1v-22c0-.552-.448-1-1-1zm-1 6h-28v-4h28zm-16-6v-28h2v28zm4 0v-28h8v28zm-2-31c0-.551.449-1 1-1h6c.551 0 1 .449 1 1v1h-8zm-26-2c0-1.654 1.346-3 3-3h12c1.654 0 3 1.346 3 3v3h-2v-3c0-.552-.448-1-1-1h-12c-.552 0-1 .448-1 1v3h-2zm14 3h-10v-2h10zm-20 2v34h-2v-34zm-10-3c0-.551.449-1 1-1h6c.551 0 1 .449 1 1v1h-8zm-2 3h8v34h-8zm14 34v-34h26v28h-11c-.552 0-1 .448-1 1v5zm28 12h4v4h-4zm6 0h4v4h-4zm4-2h-4v-2c0-1.103.897-2 2-2s2 .897 2 2zm-6 0h-4v-2c0-1.103.897-2 2-2s2 .897 2 2zm-6 0h-4v-2c0-1.103.897-2 2-2s2 .897 2 2zm-4 2h4v4h-4zm18 4v-8c0-2.206-1.794-4-4-4-1.2 0-2.266.542-3 1.382-.734-.84-1.8-1.382-3-1.382s-2.266.542-3 1.382c-.734-.84-1.8-1.382-3-1.382-2.206 0-4 1.794-4 4v8h-4v-14h28v14z"/></g></svg>