<svg id="Layer_3" enable-background="new 0 0 64 64" height="512" viewBox="0 0 64 64" width="512" xmlns="http://www.w3.org/2000/svg"><g><path d="m11 39h2v10h-2z"/><path d="m7 41h2v12h-2z"/><path d="m7 55h2v2h-2z"/><path d="m51 39h2v10h-2z"/><path d="m55 41h2v12h-2z"/><path d="m55 55h2v2h-2z"/><path d="m27 8c-1.654 0-3 1.346-3 3s1.346 3 3 3 3-1.346 3-3-1.346-3-3-3zm0 4c-.552 0-1-.449-1-1s.448-1 1-1 1 .449 1 1-.448 1-1 1z"/><path d="m35 22c-2.206 0-4 1.794-4 4s1.794 4 4 4 4-1.794 4-4-1.794-4-4-4zm0 6c-1.103 0-2-.897-2-2s.897-2 2-2 2 .897 2 2-.897 2-2 2z"/><path d="m60.97 13.514c.02-.175.03-.346.03-.514 0-2.757-2.243-5-5-5-.979 0-1.912.28-2.714.802-1.119-1.143-2.657-1.802-4.286-1.802-1.175 0-2.3.352-3.263.989-.695-.955-1.493-1.843-2.386-2.645-3.641-3.267-8.349-4.771-13.246-4.241-2.634.286-5.067 1.187-7.179 2.55-.914-.421-1.91-.653-2.926-.653-3.521 0-6.442 2.612-6.929 6-2.186-.041-4.227 1.156-5.29 3.06-.267-.04-.524-.06-.781-.06-3.309 0-6 2.691-6 6 0 2.823 1.989 5.24 4.712 5.836 1.038 1.939 3.057 3.164 5.288 3.164 1.429 0 2.772-.498 3.853-1.417.629.25 1.278.372 1.935.396.798 1.589 1.841 3.064 3.135 4.358l5.86 5.86-4.401 8.803h-1.382c-.553 0-1 .447-1 1v4c0 .553.447 1 1 1h1v9c0 1.654 1.346 3 3 3h16c1.654 0 3-1.346 3-3v-9h1c.553 0 1-.447 1-1v-4c0-.553-.447-1-1-1h-1.382l-4.401-8.803 5.86-5.86c1.562-1.562 2.774-3.379 3.607-5.354.105.006.21.017.316.017 2.006 0 3.831-1.002 4.928-2.609 1.092 1.027 2.53 1.609 4.072 1.609 3.309 0 6-2.691 6-6 0-1.719-.749-3.353-2.03-4.486zm-13.97 4.938c0 .184-.02.364-.027.547-3.296-.015-5.973-2.699-5.973-5.999 0-1.88.889-3.644 2.361-4.771 2.324 2.706 3.639 6.168 3.639 9.771zm-31.873 5.057c-.397-.216-.896-.133-1.205.201-.772.832-1.81 1.29-2.922 1.29-1.614 0-3.062-.961-3.688-2.449-.139-.331-.444-.561-.8-.605-2.002-.246-3.512-1.943-3.512-3.946 0-2.206 1.794-4 4-4 .323 0 .664.054 1.075.169.494.14 1.019-.122 1.203-.603.602-1.559 2.063-2.566 3.722-2.566.271 0 .541.027.805.081.295.061.601-.015.832-.205.233-.19.368-.475.368-.775l-.005-.101c0-2.757 2.243-5 5-5 .339 0 .674.045 1.003.112-3.686 3.21-6.003 8.002-6.003 13.34 0 1.857.315 3.661.89 5.371-.257-.079-.512-.179-.763-.314zm1.938-6.506c3.279.036 5.935 2.71 5.935 5.997 0 1.985-.97 3.807-2.572 4.921-2.217-2.655-3.428-5.968-3.428-9.469 0-.489.023-.972.065-1.449zm10.553 19.997h3.382v8h-7.382zm-.618 14v2h-4v-2zm-4 4h2v2h-2zm14 0v2h-4v-2zm-6 2h-4v-2h4zm4 2v2h-6v-2zm4-4h2v2h-2zm-10-2v-2h6v2zm-6 7v-1h4v2h-3c-.552 0-1-.448-1-1zm17 1h-3v-2h4v1c0 .552-.448 1-1 1zm1-8h-4v-2h4zm2-4h-22v-2h22zm-10-4v-8h3.382l4 8zm9.663-16.077-6.077 6.077h-9.172l-5.613-5.612c1.995-1.497 3.199-3.839 3.199-6.388 0-4.282-3.385-7.779-7.618-7.981 1.378-6.333 6.474-11.227 12.938-11.928 4.317-.469 8.445.85 11.65 3.704-1.853 1.507-2.97 3.779-2.97 6.205 0 4.334 3.466 7.866 7.771 7.988-.514 2.989-1.919 5.746-4.108 7.935zm14.337-6.923c-1.404 0-2.682-.73-3.416-1.954-.202-.334-.577-.525-.968-.479-.389.043-.717.309-.839.68-.504 1.525-1.846 2.574-3.403 2.723.404-1.454.626-2.968.626-4.518v-.452c0-2.937-.773-5.792-2.182-8.307.646-.435 1.394-.693 2.182-.693 1.33 0 2.57.659 3.317 1.764.168.249.439.408.738.436.296.023.594-.082.805-.296.571-.583 1.33-.904 2.14-.904 1.654 0 3 1.346 3 3 0 .21-.029.437-.091.693-.095.397.062.812.395 1.048 1.062.753 1.696 1.971 1.696 3.259 0 2.206-1.794 4-4 4z"/></g></svg>