<svg id="Layer_3" enable-background="new 0 0 64 64" height="512" viewBox="0 0 64 64" width="512" xmlns="http://www.w3.org/2000/svg"><g><path d="m60 37h-5v-1c0-2.414-1.721-4.434-4-4.899v-4.101h3c1.654 0 3-1.346 3-3v-10c0-1.654-1.346-3-3-3h-3v-1c0-1.654-1.346-3-3-3h-1v-4c0-1.103-.897-2-2-2h-10c-1.103 0-2 .897-2 2v4h-2v-4c0-1.103-.897-2-2-2h-10c-1.103 0-2 .897-2 2v4h-1c-1.654 0-3 1.346-3 3v1h-3c-1.654 0-3 1.346-3 3v10c0 1.654 1.346 3 3 3h3v4.101c-2.279.465-4 2.485-4 4.899v1h-5c-1.654 0-3 1.346-3 3v18c0 1.654 1.346 3 3 3h6v-.031c.912 1.225 2.359 2.031 4 2.031h36c1.641 0 3.088-.806 4-2.031v.031h6c1.654 0 3-1.346 3-3v-18c0-1.654-1.346-3-3-3zm-56 2h5v5h-6v-4c0-.551.448-1 1-1zm0 20c-.552 0-1-.449-1-1v-12h6v12c0 .342.035.677.101 1zm50-46c.552 0 1 .449 1 1v10c0 .551-.448 1-1 1h-3v-12zm-19-10h10v4h-4v-2h-2v2h-4zm-16 0h10v4h-4v-2h-2v2h-4zm-4 7c0-.551.448-1 1-1h32c.552 0 1 .449 1 1v24c0 .551-.448 1-1 1h-11v-7c0-.552-.447-1-1-1h-8c-.553 0-1 .448-1 1v7h-11c-.552 0-1-.449-1-1zm20 19v7c0 1.654-1.346 3-3 3s-3-1.346-3-3v-7zm-25-4c-.552 0-1-.449-1-1v-10c0-.551.448-1 1-1h3v12zm43 33c0 1.654-1.346 3-3 3h-36c-1.654 0-3-1.346-3-3v-22c0-1.302.839-2.402 2-2.816v.816c0 1.654 1.346 3 3 3h11.101c.465 2.279 2.484 4 4.899 4s4.434-1.721 4.899-4h11.101c1.654 0 3-1.346 3-3v-.816c1.161.414 2 1.514 2 2.816zm7-19c.552 0 1 .449 1 1v4h-6v-5zm0 20h-5.101c.066-.323.101-.658.101-1v-12h6v12c0 .551-.448 1-1 1z"/><path d="m50 43h-36c-.553 0-1 .448-1 1v12c0 1.654 1.346 3 3 3h32c1.654 0 3-1.346 3-3v-12c0-.552-.447-1-1-1zm-1 2v2h-34v-2zm-6 4h2v1c0 .551-.448 1-1 1s-1-.449-1-1zm5 8h-32c-.552 0-1-.449-1-1v-7h26v1c0 1.654 1.346 3 3 3s3-1.346 3-3v-1h2v7c0 .551-.448 1-1 1z"/><path d="m31 35h2v2h-2z"/><path d="m20 19h17v1c0 1.654 1.346 3 3 3s3-1.346 3-3v-1h1c.553 0 1-.448 1-1v-4c0-.552-.447-1-1-1h-24c-.553 0-1 .448-1 1v4c0 .552.447 1 1 1zm21 1c0 .551-.448 1-1 1s-1-.449-1-1v-1h2zm-20-5h22v2h-22z"/></g></svg>