<svg id="Layer_3" enable-background="new 0 0 64 64" height="512" viewBox="0 0 64 64" width="512" xmlns="http://www.w3.org/2000/svg"><g><path d="m24 53c-1.654 0-3 1.346-3 3s1.346 3 3 3 3-1.346 3-3-1.346-3-3-3zm0 4c-.552 0-1-.449-1-1s.448-1 1-1 1 .449 1 1-.448 1-1 1z"/><path d="m62 11h-15v-5c0-2.757-2.243-5-5-5h-36c-2.757 0-5 2.243-5 5v52c0 2.757 2.243 5 5 5h36c2.757 0 5-2.243 5-5v-13h15c.553 0 1-.448 1-1v-32c0-.552-.447-1-1-1zm-1 22h-16v-20h16zm-22 10h-6v-2.179c.314.112.648.179 1 .179 1.654 0 3-1.346 3-3 0-1.352-.898-2.497-2.129-2.871-.374-1.231-1.519-2.129-2.871-2.129s-2.497.898-2.871 2.129c-1.231.374-2.129 1.519-2.129 2.871 0 1.654 1.346 3 3 3 .352 0 .686-.067 1-.179v2.179h-10v-2.179c.314.112.648.179 1 .179 1.654 0 3-1.346 3-3 0-1.352-.898-2.497-2.129-2.871-.374-1.231-1.519-2.129-2.871-2.129s-2.497.898-2.871 2.129c-1.231.374-2.129 1.519-2.129 2.871 0 1.654 1.346 3 3 3 .352 0 .686-.067 1-.179v2.179h-6v-12h26zm-7-6c-.553 0-1 .448-1 1 0 .551-.448 1-1 1s-1-.449-1-1 .448-1 1-1c.553 0 1-.448 1-1 0-.551.448-1 1-1s1 .449 1 1c0 .552.447 1 1 1 .552 0 1 .449 1 1s-.448 1-1 1-1-.449-1-1c0-.552-.447-1-1-1zm-12 0c-.553 0-1 .448-1 1 0 .551-.448 1-1 1s-1-.449-1-1 .448-1 1-1c.553 0 1-.448 1-1 0-.551.448-1 1-1s1 .449 1 1c0 .552.447 1 1 1 .552 0 1 .449 1 1s-.448 1-1 1-1-.449-1-1c0-.552-.447-1-1-1zm21-26h-29c-.553 0-1 .448-1 1v32c0 .552.447 1 1 1h29v4h-34v-42h34zm-2 2v12h-26v-12zm4 25v5h-2v-13c0-.552-.447-1-1-1h-27v-2h27c.553 0 1-.448 1-1v-13h2v21c0 .552.447 1 1 1h17v2h-17c-.553 0-1 .448-1 1zm2 20c0 1.654-1.346 3-3 3h-36c-1.654 0-3-1.346-3-3v-52c0-1.654 1.346-3 3-3h36c1.654 0 3 1.346 3 3v5h-2v-5c0-.552-.447-1-1-1h-36c-.553 0-1 .448-1 1v44c0 .552.447 1 1 1h36c.553 0 1-.448 1-1v-5h2zm0-15v-4h16v4z"/><path d="m16 23h18c.404 0 .77-.244.924-.617.155-.374.069-.804-.217-1.09l-6-6c-.391-.391-1.023-.391-1.414 0l-2.293 2.293-2.293-2.293c-.391-.391-1.023-.391-1.414 0l-6 6c-.286.286-.372.716-.217 1.09.154.373.52.617.924.617zm12-5.586 3.586 3.586h-3.172l-2-2zm-6 0 3.586 3.586h-7.172z"/><path d="m48.349 25.208 3.838 5.373c.187.263.49.419.813.419s.626-.156.813-.419l3.838-5.373c.883-1.235 1.349-2.69 1.349-4.208 0-1.557-.606-3.021-1.707-4.121l-.172-.172c-1.085-1.085-2.587-1.707-4.121-1.707s-3.036.622-4.121 1.707l-.172.172c-1.101 1.1-1.707 2.564-1.707 4.121 0 1.518.466 2.973 1.349 4.208zm1.772-6.915.172-.172c.713-.712 1.699-1.121 2.707-1.121s1.994.409 2.707 1.121l.172.172c.723.723 1.121 1.685 1.121 2.707 0 1.099-.338 2.152-.976 3.046l-3.024 4.234-3.024-4.233c-.638-.895-.976-1.948-.976-3.047 0-1.022.398-1.984 1.121-2.707z"/><path d="m52 20h2v2h-2z"/></g></svg>