<svg id="Layer_3" enable-background="new 0 0 64 64" height="512" viewBox="0 0 64 64" width="512" xmlns="http://www.w3.org/2000/svg"><g><path d="m56 1h-48c-.553 0-1 .447-1 1v22 38c0 .553.447 1 1 1h48c.553 0 1-.447 1-1v-38-22c0-.553-.447-1-1-1zm-1 2v20h-2v-17c0-.553-.447-1-1-1h-40c-.553 0-1 .447-1 1v17h-2v-20zm0 54h-20v-4.586l4.313-4.313c1.733-1.733 2.687-4.036 2.687-6.486 0-2.578-1.094-5.052-3.002-6.787l-8.325-7.568c-.293-.266-.716-.336-1.077-.174-.363.16-.596.518-.596.914v2.5c0 1.345-.523 2.609-1.475 3.561l-3.465 3.465c-1.329 1.328-2.06 3.095-2.06 4.974s.731 3.646 2.061 4.975l4.939 4.939v4.586h-20v-32h46zm-26-13c0-1.654 1.346-3 3-3s3 1.346 3 3-1.346 3-3 3-3-1.346-3-3zm6 3.974c1.207-.914 2-2.348 2-3.974 0-2.757-2.243-5-5-5s-5 2.243-5 5c0 1.627.793 3.061 2 3.974v1.612l-3.525-3.525c-.952-.952-1.475-2.216-1.475-3.561s.523-2.609 1.475-3.561l3.465-3.465c1.329-1.328 2.06-3.095 2.06-4.974v-.239l6.652 6.048c1.493 1.356 2.348 3.291 2.348 5.306 0 1.888-.766 3.736-2.101 5.071l-2.899 2.9zm-4 .925c.323.066.658.101 1 .101s.677-.035 1-.101v12.101h-2zm20-25.899h-4v-5.026c1.207-.914 2-2.348 2-3.974 0-2.757-2.243-5-5-5s-5 2.243-5 5c0 1.627.793 3.061 2 3.974v5.026h-6v-5.026c1.207-.914 2-2.348 2-3.974 0-2.757-2.243-5-5-5s-5 2.243-5 5c0 1.627.793 3.061 2 3.974v5.026h-6v-5.026c1.207-.914 2-2.348 2-3.974 0-2.757-2.243-5-5-5s-5 2.243-5 5c0 1.627.793 3.061 2 3.974v5.026h-4v-16h38zm-7-6c-1.654 0-3-1.346-3-3s1.346-3 3-3 3 1.346 3 3-1.346 3-3 3zm0 2c.342 0 .677-.035 1-.101v4.101h-2v-4.101c.323.066.658.101 1 .101zm-12-2c-1.654 0-3-1.346-3-3s1.346-3 3-3 3 1.346 3 3-1.346 3-3 3zm0 2c.342 0 .677-.035 1-.101v4.101h-2v-4.101c.323.066.658.101 1 .101zm-12-2c-1.654 0-3-1.346-3-3s1.346-3 3-3 3 1.346 3 3-1.346 3-3 3zm0 2c.342 0 .677-.035 1-.101v4.101h-2v-4.101c.323.066.658.101 1 .101zm-11 40h20v2h-20zm26 2v-2h20v2z"/><path d="m45 36h6v2h-6z"/><path d="m43.172 30h5.657v2h-5.657z" transform="matrix(.707 -.707 .707 .707 -8.447 41.607)"/><path d="m45 40.172h2v5.657h-2z" transform="matrix(.707 -.707 .707 .707 -16.933 45.121)"/><path d="m13 36h6v2h-6z"/><path d="m17 28.172h2v5.657h-2z" transform="matrix(.707 -.707 .707 .707 -16.648 21.808)"/><path d="m15.172 42h5.657v2h-5.657z" transform="matrix(.707 -.707 .707 .707 -25.134 25.322)"/></g></svg>