<svg id="Layer_3" enable-background="new 0 0 64 64" height="512" viewBox="0 0 64 64" width="512" xmlns="http://www.w3.org/2000/svg"><g><path d="m62 27h-13v-11c0-.552-.448-1-1-1h-3v-6h3c.552 0 1-.448 1-1v-6c0-.552-.448-1-1-1h-16c-.552 0-1 .448-1 1v6c0 .552.448 1 1 1h3v6h-3c-.552 0-1 .448-1 1v11h-10v-11c0-.552-.448-1-1-1h-3v-6h3c.552 0 1-.448 1-1v-6c0-.552-.448-1-1-1h-16c-.552 0-1 .448-1 1v6c0 .552.448 1 1 1h3v6h-3c-.552 0-1 .448-1 1v41h-1c-.552 0-1 .448-1 1v4c0 .552.448 1 1 1h20c.552 0 1-.448 1-1v-4c0-.552-.448-1-1-1h-1v-10h10v10h-1c-.552 0-1 .448-1 1v4c0 .552.448 1 1 1h20c.552 0 1-.448 1-1v-4c0-.552-.448-1-1-1h-1v-10h13c.552 0 1-.448 1-1v-18c0-.552-.448-1-1-1zm-1 16.586-6.293-6.293c-.391-.391-1.023-.391-1.414 0l-4.293 4.293-4.293-4.293c-.391-.391-1.023-.391-1.414 0l-6.293 6.293v-14.586h24zm-11.414 1.414h-11.172l5.586-5.586zm.828-2 3.586-3.586 5.586 5.586h-7.172zm-17.414-40h14v4h-14zm4 6h6v6h-6zm10 8v4h-14v-4zm-28 34h-14v-28h14zm2-18h4v8h-4zm6 0h4v8h-4zm4-4v2h-10v-2zm-26-26h14v4h-14zm4 6h6v6h-6zm10 8v4h-14v-4zm2 44h-18v-2h18zm-16-4v-4h14v4zm16-12v-2h10v2zm28 16h-18v-2h18zm-16-4v-4h14v4zm14-6h-14v-28h14v4h-11c-.552 0-1 .448-1 1v18c0 .552.448 1 1 1h11z"/><path d="m49 37c1.654 0 3-1.346 3-3s-1.346-3-3-3-3 1.346-3 3 1.346 3 3 3zm0-4c.551 0 1 .449 1 1s-.449 1-1 1-1-.449-1-1 .449-1 1-1z"/></g></svg>