<svg id="Layer_3" enable-background="new 0 0 64 64" height="512" viewBox="0 0 64 64" width="512" xmlns="http://www.w3.org/2000/svg"><g><path d="m52 55h-1v-3c0-.553-.447-1-1-1h-1v-28h1c.553 0 1-.447 1-1v-6c0-.553-.447-1-1-1h-1.586l-9.707-9.707c-.187-.188-.441-.293-.707-.293h-1.101c-.465-2.279-2.485-4-4.899-4s-4.434 1.721-4.899 4h-1.101c-.266 0-.52.105-.707.293l-9.707 9.707h-1.586c-.553 0-1 .447-1 1v6c0 .553.447 1 1 1h1v28h-1c-.553 0-1 .447-1 1v3h-1c-.553 0-1 .447-1 1v6c0 .553.447 1 1 1h40c.553 0 1-.447 1-1v-6c0-.553-.447-1-1-1zm-20-52c1.302 0 2.402.839 2.816 2h-5.631c.413-1.161 1.513-2 2.815-2zm-5.586 4h11.172l8 8h-27.172zm-11.414 10h34v4h-34zm2 6h30v28h-4v-3c0-.553-.447-1-1-1h-3v-7c0-.553-.447-1-1-1h-5v-2.04c1.021-.095 1.973-.518 2.707-1.253.834-.834 1.293-1.942 1.293-3.121 0-1.935-.753-3.753-2.121-5.121l-2.172-2.172c-.286-.286-.716-.372-1.09-.217-.374.154-.617.52-.617.924v1.204c0 .727-.404 1.38-1.053 1.705l-.789.393c-1.331.668-2.158 2.006-2.158 3.494 0 1.044.406 2.024 1.145 2.763.78.78 1.779 1.244 2.855 1.38v2.061h-5c-.553 0-1 .447-1 1v7h-3c-.553 0-1 .447-1 1v3h-4zm15.586 12h-.961c-.781 0-1.515-.304-2.066-.855-.361-.361-.559-.839-.559-1.349 0-.727.404-1.38 1.053-1.705l.789-.393c1.003-.503 1.72-1.388 2.013-2.43l.61.61c.99.99 1.535 2.307 1.535 3.707 0 .645-.251 1.251-.707 1.707s-1.063.708-1.707.708zm4.414 6v6h-10v-6zm4 8v2h-18v-2zm-26 4h34v2h-34zm36 8h-38v-4h38z"/><path d="m53.964 30.5h7.071v2h-7.071z" transform="matrix(.707 -.707 .707 .707 -5.433 49.885)"/><path d="m56.5 38.964h2v7.071h-2z" transform="matrix(.707 -.707 .707 .707 -13.211 53.107)"/><path d="m56 36h6v2h-6z"/><path d="m5.5 27.964h2v7.071h-2z" transform="matrix(.707 -.707 .707 .707 -20.37 13.822)"/><path d="m2.964 41.5h7.071v2h-7.071z" transform="matrix(.707 -.707 .707 .707 -28.148 17.044)"/><path d="m2 36h6v2h-6z"/></g></svg>