<svg id="Layer_3" enable-background="new 0 0 64 64" height="512" viewBox="0 0 64 64" width="512" xmlns="http://www.w3.org/2000/svg"><g><path d="m20 35c7.168 0 13-5.832 13-13s-5.832-13-13-13-13 5.832-13 13 5.832 13 13 13zm-5.25-3.336 1.664-1.664h3.586c.266 0 .52-.105.707-.293l1.707-1.707h1.172l2.88 2.88c-1.818 1.327-4.048 2.12-6.466 2.12-1.9 0-3.689-.485-5.25-1.336zm16.25-9.664c0 .338-.021.67-.051 1h-3.535l-1.414-1.414v-3.586c0-.265-.105-.52-.293-.707l-1.707-1.707v-3.822c4.091 1.605 7 5.583 7 10.236zm-9-10.809v4.809c0 .265.105.52.293.707l1.707 1.707v3.586c0 .265.105.52.293.707l2 2c.187.188.441.293.707.293h3.574c-.492 1.731-1.396 3.286-2.602 4.558l-3.265-3.265c-.187-.188-.441-.293-.707-.293h-2c-.266 0-.52.105-.707.293l-1.707 1.707h-3.586c-.266 0-.52.105-.707.293l-2.232 2.232c-1.458-1.189-2.599-2.746-3.297-4.525h2.236c.266 0 .52-.105.707-.293l1.707-1.707h4.586c.266 0 .52-.105.707-.293l2-2c.188-.187.293-.442.293-.707v-2c0-.265-.105-.52-.293-.707l-1.707-1.707v-1.586c0-.265-.105-.52-.293-.707l-2.834-2.834c.992-.295 2.04-.459 3.127-.459.684 0 1.35.071 2 .191zm-7.135 1.088 3.135 3.135v1.586c0 .265.105.52.293.707l1.707 1.707v1.172l-1.414 1.414h-4.586c-.266 0-.52.105-.707.293l-1.707 1.707h-2.395c-.12-.65-.191-1.316-.191-2 0-4.211 2.381-7.873 5.865-9.721z"/><path d="m34 37h-28c-.553 0-1 .447-1 1v16c0 .553.447 1 1 1h28c.553 0 1-.447 1-1v-16c0-.553-.447-1-1-1zm-1 16h-26v-14h26z"/><path d="m9 41h22v2h-22z"/><path d="m9 45h22v2h-22z"/><path d="m9 49h22v2h-22z"/><path d="m63 37.875c0-3.41-1.328-6.617-3.737-9.025l-.108-.11c-2.412-2.412-5.619-3.74-9.03-3.74h-.25c-2.476 0-4.839.708-6.875 2.015v-25.015c0-.552-.447-1-1-1h-38c-.553 0-1 .448-1 1v3h-1c-.553 0-1 .448-1 1v52c0 .553.447 1 1 1h36c.553 0 1-.447 1-1v-1h3c.553 0 1-.447 1-1v-4.235l5.277 9.235h-5.277v2h14v-2h-5.277l9.594-16.79c1.101-1.926 1.683-4.116 1.683-6.335zm-22 17.125h-2v-7h-2v9h-34v-50h34v22h2v-23c0-.552-.447-1-1-1h-33v-2h36v25.6c-.051.049-.107.092-.157.143l-.103.103c-2.412 2.412-3.74 5.619-3.74 9.029 0 2.219.582 4.409 1.683 6.335l2.317 4.055zm18.581-11.782-9.581 16.766-7-12.25v-.068h-.039l-2.542-4.449c-.929-1.623-1.419-3.471-1.419-5.342 0-2.876 1.12-5.581 3.157-7.618l.103-.103c2.034-2.034 4.738-3.154 7.615-3.154h.25c2.877 0 5.581 1.12 7.612 3.15l.108.11c2.035 2.034 3.155 4.739 3.155 7.615 0 1.871-.49 3.719-1.419 5.343z"/><path d="m50 29c-4.963 0-9 4.037-9 9s4.037 9 9 9 9-4.037 9-9-4.037-9-9-9zm1.414 10-2-2 1.586-1.586 3.586 3.586zm-2.828 0h-3.172l1.586-1.586zm1.414 6c-2.785 0-5.188-1.639-6.315-4h12.63c-1.127 2.361-3.53 4-6.315 4zm6.972-6.442-5.265-5.265c-.391-.391-1.023-.391-1.414 0l-2.293 2.293-.293-.293c-.391-.391-1.023-.391-1.414 0l-3.265 3.265c-.014-.185-.028-.37-.028-.558 0-3.859 3.141-7 7-7s7 3.141 7 7c0 .188-.014.373-.028.558z"/></g></svg>