<svg id="Layer_3" enable-background="new 0 0 64 64" height="512" viewBox="0 0 64 64" width="512" xmlns="http://www.w3.org/2000/svg"><path d="m62 29h-1v-3c0-1.654-1.346-3-3-3h-3v-11c0-.552-.448-1-1-1h-9c-.552 0-1 .448-1 1v5h-3v-6c0-.265-.105-.52-.293-.707l-2.707-2.707v-5.586c0-.552-.448-1-1-1h-4c-.552 0-1 .448-1 1v5.586l-2 2-2-2v-5.586c0-.552-.448-1-1-1h-4c-.552 0-1 .448-1 1v5.586l-2 2-2-2v-5.586c0-.552-.448-1-1-1h-4c-.552 0-1 .448-1 1v5.586l-2.707 2.707c-.188.187-.293.442-.293.707v12h-3c-1.654 0-3 1.346-3 3v3h-1c-.552 0-1 .448-1 1v8c0 .553.448 1 1 1h1v19c0 2.757 2.243 5 5 5h48c2.757 0 5-2.243 5-5v-19h1c.552 0 1-.447 1-1v-8c0-.552-.448-1-1-1zm-16-16h7v10h-3v-5c0-.552-.448-1-1-1h-3zm2 10h-10v-4h10zm-11-6c-.552 0-1 .448-1 1v5h-5v-8h8v2zm-16-2h8v8h-8zm12.707-6.293c.188-.187.293-.442.293-.707v-5h2v5c0 .265.105.52.293.707l2.707 2.707v1.586h-8v-1.586zm-10 0c.188-.187.293-.442.293-.707v-5h2v5c0 .265.105.52.293.707l2.707 2.707v1.586h-8v-1.586zm-10 0c.188-.187.293-.442.293-.707v-5h2v5c0 .265.105.52.293.707l2.707 2.707v1.586h-8v-1.586zm-2.707 6.293h8v8h-8zm-6 11c0-.551.449-1 1-1h52c.551 0 1 .449 1 1v3h-4v-1c0-.552-.448-1-1-1h-6c-.552 0-1 .448-1 1v1h-30v-1c0-.552-.448-1-1-1h-6c-.552 0-1 .448-1 1v1h-4zm48 3v12h-4v-12zm-6 8h-30v-6h30zm-32-8v12h-4v-12zm-12 2h6v6h-6zm16 30h-4v-12c0-1.103.897-2 2-2s2 .897 2 2zm10 0h-4v-12c0-1.103.897-2 2-2s2 .897 2 2zm10 0h-4v-12c0-1.103.897-2 2-2s2 .897 2 2zm10 0h-4v-12c0-1.103.897-2 2-2s2 .897 2 2zm10-3c0 1.654-1.346 3-3 3h-5v-12c0-2.206-1.794-4-4-4s-4 1.794-4 4v12h-2v-12c0-2.206-1.794-4-4-4s-4 1.794-4 4v12h-2v-12c0-2.206-1.794-4-4-4s-4 1.794-4 4v12h-2v-12c0-2.206-1.794-4-4-4s-4 1.794-4 4v12h-5c-1.654 0-3-1.346-3-3v-19h4v3c0 .553.448 1 1 1h6c.552 0 1-.447 1-1v-3h30v3c0 .553.448 1 1 1h6c.552 0 1-.447 1-1v-3h4zm2-21h-6v-6h6z"/></svg>