<svg id="Layer_3" enable-background="new 0 0 64 64" height="512" viewBox="0 0 64 64" width="512" xmlns="http://www.w3.org/2000/svg"><g><path d="m36 31.267v-4.267h8c.552 0 1-.448 1-1v-8c0-.552-.448-1-1-1h-4c-.265 0-.52.105-.707.293l-1.293 1.293-1.293-1.293c-.187-.188-.442-.293-.707-.293v-2h10c.265 0 .52-.105.707-.293l4-4c.391-.391.391-1.023 0-1.414l-4-4c-.187-.188-.442-.293-.707-.293h-5c-.265 0-.52.105-.707.293l-1.293 1.293-1.293-1.293c-.187-.188-.442-.293-.707-.293h-1v-3c0-.552-.448-1-1-1h-6c-.552 0-1 .448-1 1v3h-8c-.552 0-1 .448-1 1v8c0 .552.448 1 1 1h3c.265 0 .52-.105.707-.293l1.293-1.293 1.293 1.293c.187.188.442.293.707.293h1v2h-10c-.265 0-.52.105-.707.293l-4 4c-.391.391-.391 1.023 0 1.414l4 4c.187.188.442.293.707.293h6c.265 0 .52-.105.707-.293l1.293-1.293 1.293 1.293c.187.188.442.293.707.293v4.267c-15.209 1.969-27 14.995-27 30.733 0 .553.448 1 1 1h60c.552 0 1-.447 1-1 0-15.738-11.791-28.764-27-30.733zm24.563 25.733h-7.149l-3.707-3.707c-.187-.188-.442-.293-.707-.293h-3.586l-1.414-1.414v-3.172l3.707-3.707c.188-.187.293-.441.293-.707v-1.586l2.62-2.62c5.125 4.305 8.745 10.343 9.943 17.206zm-16.578-21.399-3.399 3.399h-3.586c-.265 0-.52.105-.707.293l-1.707 1.707h-1.172l-3.707-3.707c-.187-.188-.442-.293-.707-.293h-3.586l-2.525-2.525c2.867-.952 5.928-1.475 9.111-1.475 4.273 0 8.329.935 11.985 2.601zm-13.985-32.601h4v2h-4zm-4.293 8.293c-.391-.391-1.023-.391-1.414 0l-1.707 1.707h-1.586v-6h15.586l1.707 1.707c.391.391 1.023.391 1.414 0l1.707-1.707h4.172l3 3-3 3h-18.172zm4.293 3.707h4v2h-4zm-3.293 8.293c-.391-.391-1.023-.391-1.414 0l-1.707 1.707h-5.172l-3-3 3-3h17.172l1.707 1.707c.391.391 1.023.391 1.414 0l1.707-1.707h2.586v6h-14.586zm3.293 3.707h4v4.071c-.662-.042-1.328-.071-2-.071s-1.338.029-2 .071zm-14.938 11.476 1.938 1.938v3.586c0 .266.105.52.293.707l1.707 1.707v1.172l-3.414 3.414h-3.586c-.265 0-.52.105-.707.293l-3.707 3.707h-3.725c1.679-6.747 5.722-12.568 11.201-16.524zm2.938 22.524v-1.586l3.414-3.414h3.586c.265 0 .52-.105.707-.293l1.707-1.707h3.172l3.707 3.707c.187.188.442.293.707.293h3.586l3 3zm26.414 0-4.707-4.707c-.187-.188-.442-.293-.707-.293h-3.586l-3.707-3.707c-.187-.188-.442-.293-.707-.293h-4c-.265 0-.52.105-.707.293l-1.707 1.707h-3.586c-.265 0-.52.105-.707.293l-4 4c-.188.187-.293.441-.293.707v2h-12.983c.046-1.359.192-2.694.42-4h4.563c.265 0 .52-.105.707-.293l3.707-3.707h3.586c.265 0 .52-.105.707-.293l4-4c.188-.187.293-.441.293-.707v-2c0-.266-.105-.52-.293-.707l-1.707-1.707v-3.586c0-.266-.105-.52-.293-.707l-1.948-1.948c1.293-.802 2.651-1.51 4.068-2.104l3.466 3.466c.187.188.442.293.707.293h3.586l3.707 3.707c.187.188.442.293.707.293h2c.265 0 .52-.105.707-.293l1.707-1.707h3.586c.265 0 .52-.105.707-.293l4.163-4.163c1.1.602 2.161 1.268 3.169 2.003l-2.746 2.746c-.188.187-.293.441-.293.707v1.586l-3.707 3.707c-.188.187-.293.441-.293.707v4c0 .266.105.52.293.707l2 2c.187.188.442.293.707.293h3.586l3.707 3.707c.187.188.442.293.707.293h7.837c.068.661.123 1.327.146 2z"/><path d="m1.684 10.949c1.582.527 2.84 1.786 3.367 3.367.137.409.518.684.949.684s.812-.275.949-.684c.527-1.582 1.786-2.84 3.367-3.367.409-.137.684-.518.684-.949s-.275-.812-.684-.949c-1.582-.527-2.84-1.786-3.367-3.367-.137-.409-.518-.684-.949-.684s-.812.275-.949.684c-.527 1.582-1.786 2.84-3.367 3.367-.409.137-.684.518-.684.949s.275.812.684.949zm4.316-2.753c.492.701 1.103 1.312 1.804 1.804-.701.492-1.312 1.103-1.804 1.804-.492-.701-1.103-1.312-1.804-1.804.701-.492 1.312-1.103 1.804-1.804z"/><path d="m53.684 24.949c1.582.527 2.84 1.786 3.367 3.367.137.409.518.684.949.684s.812-.275.949-.684c.527-1.582 1.786-2.84 3.367-3.367.409-.137.684-.518.684-.949s-.275-.812-.684-.949c-1.582-.527-2.84-1.786-3.367-3.367-.137-.409-.518-.684-.949-.684s-.812.275-.949.684c-.527 1.582-1.786 2.84-3.367 3.367-.409.137-.684.518-.684.949s.275.812.684.949zm4.316-2.753c.492.701 1.103 1.312 1.804 1.804-.701.492-1.312 1.103-1.804 1.804-.492-.701-1.103-1.312-1.804-1.804.701-.492 1.312-1.103 1.804-1.804z"/></g></svg>