<svg id="Layer_3" enable-background="new 0 0 64 64" height="512" viewBox="0 0 64 64" width="512" xmlns="http://www.w3.org/2000/svg"><g><path d="m57 28v-2c0-13.785-11.215-25-25-25s-25 11.215-25 25v2c0 .276.112.526.293.707l16.073 16.073c-.234.699-.366 1.444-.366 2.22v2c0 1.654 1.346 3 3 3h1v8c0 1.654 1.346 3 3 3h4c1.654 0 3-1.346 3-3v-8h1c1.654 0 3-1.346 3-3v-2c0-.776-.132-1.521-.367-2.219l16.073-16.073c.182-.182.294-.432.294-.708zm-2.208-5.098c-1.253-1.179-2.939-1.902-4.792-1.902-2.122 0-4.017.957-5.302 2.453-.982-7.571-4.402-14.572-9.89-20.06l-.235-.235c10.453 1.171 18.815 9.362 20.219 19.744zm-19.422 17.234c.394-.619.63-1.349.63-2.136 0-2.206-1.794-4-4-4s-4 1.794-4 4c0 .787.236 1.517.63 2.136-.434.087-.853.216-1.255.379l-6.355-12.712c.106-2.664 2.29-4.803 4.98-4.803 2.757 0 5 2.243 5 5 0 .552.448 1 1 1s1-.448 1-1c0-2.757 2.243-5 5-5 2.69 0 4.874 2.139 4.98 4.803l-6.356 12.712c-.401-.163-.82-.292-1.254-.379zm-5.37-2.136c0-1.103.897-2 2-2s2 .897 2 2-.897 2-2 2-2-.897-2-2zm3.394-33.192c4.932 4.932 8.093 11.16 9.179 17.915-1.229-1.067-2.823-1.723-4.573-1.723-1.959 0-3.728.815-5 2.117v-18.703zm-2.394-.394v18.703c-1.272-1.302-3.041-2.117-5-2.117-1.75 0-3.344.656-4.573 1.722 1.087-6.755 4.247-12.983 9.179-17.915zm-1.573-1.255-.235.235c-5.488 5.488-8.908 12.489-9.89 20.06-1.285-1.497-3.18-2.454-5.302-2.454-1.853 0-3.539.723-4.792 1.902 1.404-10.382 9.766-18.573 20.219-19.743zm-20.389 24.465c.196-2.579 2.334-4.624 4.962-4.624 2.757 0 5 2.243 5 5 0 .161.047.308.115.443l-.009.005 6.541 13.081c-.5.399-.943.866-1.318 1.385zm29.962 21.376c0 .552-.449 1-1 1h-1v-4h-2v14c0 .552-.449 1-1 1h-1v-6h-2v6h-1c-.551 0-1-.448-1-1v-14h-2v4h-1c-.551 0-1-.448-1-1v-2c0-2.757 2.243-5 5-5h4c2.757 0 5 2.243 5 5zm-.646-7.471 6.541-13.081-.009-.005c.067-.135.114-.282.114-.443 0-2.757 2.243-5 5-5 2.628 0 4.766 2.045 4.962 4.624l-15.29 15.29c-.375-.519-.818-.986-1.318-1.385z"/><path d="m57 47h2v10h-2z"/><path d="m61 43h2v12h-2z"/><path d="m61 39h2v2h-2z"/><path d="m53 43h2v12h-2z"/><path d="m53 39h2v2h-2z"/><path d="m5 39h2v10h-2z"/><path d="m9 41h2v12h-2z"/><path d="m9 55h2v2h-2z"/><path d="m1 41h2v12h-2z"/><path d="m1 55h2v2h-2z"/><path d="m6 11c.431 0 .812-.275.949-.684.527-1.582 1.786-2.84 3.367-3.367.409-.137.684-.518.684-.949s-.275-.812-.684-.949c-1.582-.527-2.84-1.786-3.367-3.367-.137-.409-.518-.684-.949-.684s-.812.275-.949.684c-.527 1.582-1.786 2.84-3.367 3.367-.409.137-.684.518-.684.949s.275.812.684.949c1.582.527 2.84 1.786 3.367 3.367.137.409.518.684.949.684zm0-6.804c.492.701 1.103 1.312 1.804 1.804-.701.492-1.312 1.103-1.804 1.804-.492-.701-1.103-1.312-1.804-1.804.701-.492 1.312-1.103 1.804-1.804z"/><path d="m63 10c0-.431-.275-.812-.684-.949-1.582-.527-2.84-1.786-3.367-3.367-.137-.409-.518-.684-.949-.684s-.812.275-.949.684c-.527 1.582-1.786 2.84-3.367 3.367-.409.137-.684.518-.684.949s.275.812.684.949c1.582.527 2.84 1.786 3.367 3.367.137.409.518.684.949.684s.812-.275.949-.684c.527-1.582 1.786-2.84 3.367-3.367.409-.137.684-.518.684-.949zm-5 1.804c-.492-.701-1.103-1.312-1.804-1.804.701-.492 1.312-1.103 1.804-1.804.492.701 1.103 1.312 1.804 1.804-.701.492-1.312 1.103-1.804 1.804z"/></g></svg>