<svg id="Layer_3" enable-background="new 0 0 64 64" height="512" viewBox="0 0 64 64" width="512" xmlns="http://www.w3.org/2000/svg"><g><path d="m58 47c2.757 0 5-2.243 5-5v-10c0-2.757-2.243-5-5-5h-13.465l-6.516-9.773c-.929-1.395-2.484-2.227-4.16-2.227h-.859v-3c0-.553-.447-1-1-1h-1v-9c0-.553-.447-1-1-1h-8c-.553 0-1 .447-1 1v3h-2v-3c0-.553-.447-1-1-1h-10c-.553 0-1 .447-1 1v9h-1c-.553 0-1 .447-1 1v3h-1c-1.654 0-3 1.346-3 3v26c0 1.654 1.346 3 3 3h5.08c.113.781.351 1.521.7 2.197-2.025-.377-4.172-.119-6.016.803l-2.211 1.105c-.339.17-.553.516-.553.895v10c0 .553.447 1 1 1h60c.553 0 1-.447 1-1v-10c0-.379-.214-.725-.553-.895l-2.211-1.105c-1.844-.922-3.991-1.18-6.016-.803.349-.676.588-1.416.7-2.197zm3-12h-3c-.552 0-1-.448-1-1s.448-1 1-1h3zm-34-8v-6h2v6zm4-6h7.132l4 6h-11.132zm-8-18h6v8h-3v-5c0-.553-.447-1-1-1h-2zm1 8h-9v-4h9zm-15-8h8v2h-3c-.553 0-1 .447-1 1v5h-4zm-2 10h24v2h-24zm-3 4h29.859c1.005 0 1.938.499 2.496 1.336l.443.664h-10.798c-.553 0-1 .447-1 1v8c0 .553.447 1 1 1h18 14c1.302 0 2.402.839 2.816 2h-2.816c-1.654 0-3 1.346-3 3s1.346 3 3 3h3v5c0 1.654-1.346 3-3 3h-3.08c-.488-3.386-3.401-6-6.92-6s-6.432 2.614-6.92 6h-18.16c-.488-3.386-3.401-6-6.92-6s-6.432 2.614-6.92 6h-2.08v-2c0-1.103-.897-2-2-2h-2v-23c0-.552.448-1 1-1zm44.315 33.968c-.21.009-.419.009-.629 0-2.609-.166-4.686-2.319-4.686-4.968 0-2.757 2.243-5 5-5s5 2.243 5 5c0 2.649-2.077 4.802-4.685 4.968zm-32.63 0c-2.608-.166-4.685-2.319-4.685-4.968 0-2.757 2.243-5 5-5s5 2.243 5 5c0 2.649-2.077 4.802-4.685 4.968-.21.009-.42.009-.63 0zm7.235-3.968h18.16c.113.781.351 1.521.7 2.197-2.025-.376-4.172-.118-6.016.803l-.422.211c-2.066 1.033-4.617 1.033-6.684 0l-.422-.211c-1.844-.922-3.991-1.18-6.016-.803.349-.676.588-1.416.7-2.197zm-19.92-3v-1h2v2h-1c-.552 0-1-.448-1-1zm56.342 7.789 1.658.829v8.382h-58v-8.382l1.658-.829c2.066-1.033 4.617-1.033 6.684 0l.422.211c1.027.513 2.149.818 3.291.929.31.042.624.071.945.071s.635-.029.945-.071c1.142-.111 2.264-.415 3.291-.929l.422-.211c2.066-1.033 4.617-1.033 6.684 0l.422.211c2.619 1.309 5.854 1.309 8.473 0l.422-.211c2.066-1.033 4.617-1.033 6.684 0l.421.211c1.027.513 2.149.818 3.291.929.31.042.624.071.945.071s.635-.029.945-.071c1.142-.111 2.264-.415 3.291-.929l.422-.211c2.067-1.033 4.617-1.033 6.684 0z"/><path d="m6 29h16c.553 0 1-.447 1-1v-8c0-.553-.447-1-1-1h-16c-.553 0-1 .447-1 1v8c0 .553.447 1 1 1zm1-8h14v6h-14z"/><path d="m25 31h6v2h-6z"/><path d="m16 43c-1.654 0-3 1.346-3 3s1.346 3 3 3 3-1.346 3-3-1.346-3-3-3zm0 4c-.552 0-1-.448-1-1s.448-1 1-1 1 .448 1 1-.448 1-1 1z"/><path d="m48 43c-1.654 0-3 1.346-3 3s1.346 3 3 3 3-1.346 3-3-1.346-3-3-3zm0 4c-.552 0-1-.448-1-1s.448-1 1-1 1 .448 1 1-.448 1-1 1z"/></g></svg>