<svg id="Layer_3" enable-background="new 0 0 64 64" height="512" viewBox="0 0 64 64" width="512" xmlns="http://www.w3.org/2000/svg"><g><path d="m62 6h-42.353c-1.732-2.984-4.955-5-8.647-5-5.514 0-10 4.486-10 10v42c0 5.514 4.486 10 10 10s10-4.486 10-10v-32h29.05c3.459 0 6.711-1.347 9.157-3.793s3.793-5.698 3.793-9.157v-1.05c0-.553-.448-1-1-1zm-43 47c0 4.411-3.589 8-8 8s-8-3.589-8-8v-42c0-4.411 3.589-8 8-8s8 3.589 8 8zm2-34v-2h35.346c-1.831 1.294-4.007 2-6.296 2zm40-10.95c0 2.565-.877 4.996-2.488 6.95h-37.512v-4c0-1.045-.163-2.052-.461-3h40.461z"/><path d="m11 7c-2.206 0-4 1.794-4 4s1.794 4 4 4 4-1.794 4-4-1.794-4-4-4zm0 6c-1.103 0-2-.897-2-2s.897-2 2-2 2 .897 2 2-.897 2-2 2z"/><path d="m11 49c-2.206 0-4 1.794-4 4s1.794 4 4 4 4-1.794 4-4-1.794-4-4-4zm0 6c-1.103 0-2-.897-2-2s.897-2 2-2 2 .897 2 2-.897 2-2 2z"/><path d="m62 31h-22.295c-.863-2.888-3.541-5-6.705-5-3.86 0-7 3.141-7 7v23c0 3.859 3.14 7 7 7s7-3.141 7-7v-6.586l6.293 6.293c.187.188.442.293.707.293h4c.552 0 1-.447 1-1v-4c0-.266-.105-.52-.293-.707l-10.293-10.293h.586c.265 0 .52-.105.707-.293l1.293-1.293 1.293 1.293c.391.391 1.023.391 1.414 0l1.293-1.293 1.293 1.293c.391.391 1.023.391 1.414 0l1.293-1.293 1.293 1.293c.391.391 1.023.391 1.414 0l1.293-1.293 1.293 1.293c.187.188.442.293.707.293h.586c1.18 0 2.288-.459 3.122-1.293s1.292-1.942 1.292-3.121v-3.586c0-.553-.448-1-1-1zm-24 25c0 2.757-2.243 5-5 5s-5-2.243-5-5v-23c0-2.757 2.243-5 5-5s5 2.243 5 5zm12-2h-2.586l-7.414-7.414v-5.172l10 10zm11-18.414c0 .645-.251 1.251-.708 1.707-.455.456-1.061.707-1.706.707h-.172l-1.707-1.707c-.391-.391-1.023-.391-1.414 0l-1.293 1.293-1.293-1.293c-.391-.391-1.023-.391-1.414 0l-1.293 1.293-1.293-1.293c-.391-.391-1.023-.391-1.414 0l-1.293 1.293-1.293-1.293c-.391-.391-1.023-.391-1.414 0l-1.707 1.707h-1.586v-5h21z"/><path d="m33 30c-1.654 0-3 1.346-3 3s1.346 3 3 3 3-1.346 3-3-1.346-3-3-3zm0 4c-.551 0-1-.448-1-1s.449-1 1-1 1 .448 1 1-.449 1-1 1z"/><path d="m33 53c-1.654 0-3 1.346-3 3s1.346 3 3 3 3-1.346 3-3-1.346-3-3-3zm0 4c-.551 0-1-.448-1-1s.449-1 1-1 1 .448 1 1-.449 1-1 1z"/></g></svg>