<svg id="Layer_3" enable-background="new 0 0 64 64" height="512" viewBox="0 0 64 64" width="512" xmlns="http://www.w3.org/2000/svg"><path d="m62 37h-9v-21c0-.552-.447-1-1-1h-1.586l-4.07-4.07c.382-.141.656-.5.656-.93v-4c0-.552-.447-1-1-1h-1v-3c0-.552-.447-1-1-1h-24c-.553 0-1 .448-1 1v3h-1c-.553 0-1 .448-1 1v4c0 .552.447 1 1 1h1v14h-13c-.553 0-1 .448-1 1v6c0 .552.447 1 1 1h1v2h-1c-2.757 0-5 2.243-5 5v20c0 1.654 1.346 3 3 3h20c1.654 0 3-1.346 3-3v-1h12.101c.465 2.279 2.484 4 4.899 4h14c2.757 0 5-2.243 5-5v-20c0-.553-.447-1-1-1zm-1 4h-20v-2h20zm-16-28.586 2.656 2.656c-.382.141-.656.5-.656.93v21h-2zm6 24.586h-2v-20h2zm-30-34h22v2h-22zm-2 4h26v2h-26zm24 4v2h-22v-2zm-32 20v-4h2v4zm4-4h2v4h-2zm4 4v-4h2v4zm-12-4h2v4h-2zm2 6h10v2h-10zm-2 4h2v24h-2zm10 18h-6v-2h6zm0-4h-6v-4h6zm0-6h-6v-2h6zm0-4h-6v-4h6zm-6 16h6v4h-6zm8-20h2v24h-2zm-16 23v-20c0-1.302.839-2.402 2-2.816v23.816h-1c-.552 0-1-.448-1-1zm22 0c0 .552-.448 1-1 1h-1v-23.816c1.161.414 2 1.514 2 2.816zm-3-25h-1v-2h1c.553 0 1-.448 1-1v-6c0-.552-.447-1-1-1h-1v-10h22v22h-3c-.553 0-1 .447-1 1v15h-12v-13c0-2.757-2.243-5-5-5zm5 20h12v2h-12zm31 6h-14c-1.654 0-3-1.346-3-3v-15h20v15c0 1.654-1.346 3-3 3z"/></svg>