<svg id="Layer_3" enable-background="new 0 0 64 64" height="512" viewBox="0 0 64 64" width="512" xmlns="http://www.w3.org/2000/svg"><g><path d="m44 5h-3.101c-.465-2.279-2.485-4-4.899-4h-8c-2.414 0-4.434 1.721-4.899 4h-3.101c-.552 0-1 .447-1 1v6c0 .553.448 1 1 1h1.279l3.721 11.162v33.838c0 .553.448 1 1 1h3v3c0 .553.448 1 1 1h4c.552 0 1-.447 1-1v-3h3c.552 0 1-.447 1-1v-33.838l3.721-11.162h1.279c.552 0 1-.447 1-1v-6c0-.553-.448-1-1-1zm-16-2h8c1.302 0 2.402.839 2.816 2h-13.632c.414-1.161 1.514-2 2.816-2zm-1 22h10v2h-10zm0 4h10v20h-10zm0 22h10v2h-10zm6 10h-2v-2h2zm-6-4v-2h10v2zm10.279-34h-10.558l-3.333-10h17.225zm5.721-12h-22v-4h22z"/><path d="m31 31h2v4h-2z"/><path d="m62.496 31.132-6.496-3.712v-6.42c0-.404-.244-.77-.617-.924-.375-.157-.804-.069-1.09.217l-7 7 1.414 1.414 5.293-5.293v4.586c0 .358.192.69.504.868l5.48 3.132-5.48 3.132c-.312.178-.504.51-.504.868v4.586l-5.293-5.293-1.414 1.414 7 7c.191.191.447.293.707.293.129 0 .259-.024.383-.076.373-.154.617-.52.617-.924v-6.42l6.496-3.712c.312-.178.504-.51.504-.868s-.192-.69-.504-.868z"/><path d="m10 28v-4.586l5.293 5.293 1.414-1.414-7-7c-.287-.286-.716-.374-1.09-.217-.373.154-.617.52-.617.924v6.42l-6.496 3.712c-.312.178-.504.51-.504.868s.192.69.504.868l6.496 3.712v6.42c0 .404.244.77.617.924.124.052.254.076.383.076.26 0 .516-.102.707-.293l7-7-1.414-1.414-5.293 5.293v-4.586c0-.358-.192-.69-.504-.868l-5.48-3.132 5.48-3.132c.312-.178.504-.51.504-.868z"/></g></svg>