<svg id="Layer_3" enable-background="new 0 0 64 64" height="512" viewBox="0 0 64 64" width="512" xmlns="http://www.w3.org/2000/svg"><g><path d="m37 51h14v2h-14z"/><path d="m62.707 22.293-9-9c-.187-.188-.441-.293-.707-.293h-1.586l-5.707-5.707c-.187-.188-.441-.293-.707-.293h-3.586l-1.707-1.707c-.187-.188-.441-.293-.707-.293h-4c-.266 0-.52.105-.707.293l-1.707 1.707h-3.586c-.266 0-.52.105-.707.293l-3.707 3.707h-3.586c-.266 0-.52.105-.707.293l-2.707 2.707h-3.586c-.266 0-.52.105-.707.293l-3.707 3.707h-3.586c-.266 0-.52.105-.707.293l-4 4c-.286.286-.372.716-.217 1.09.154.373.52.617.924.617h60c.404 0 .77-.244.924-.617.155-.374.069-.804-.217-1.09zm-58.293-.293 2-2h3.586c.266 0 .52-.105.707-.293l3.707-3.707h3.586c.266 0 .52-.105.707-.293l2.707-2.707h7.172l9 9zm36 0-10.707-10.707c-.187-.188-.441-.293-.707-.293h-1.586l2-2h3.586c.266 0 .52-.105.707-.293l1.707-1.707h3.172l1.707 1.707c.187.188.441.293.707.293h3.586l5.707 5.707c.187.188.441.293.707.293h1.586l7 7z"/><path d="m50 41c-.59 0-1.172.051-1.742.142l-3.765-9.142h1.507c1.654 0 3-1.346 3-3s-1.346-3-3-3h-6c-1.654 0-3 1.346-3 3s1.346 3 3 3h1.481l-.862 2h-20.589l.939-3.757c.075-.299.008-.615-.182-.858s-.479-.385-.787-.385h-3.586l-3.707-3.707-1.414 1.414 4 4c.187.188.441.293.707.293h2.719l-2.554 10.216c-.7-.14-1.424-.216-2.165-.216-6.065 0-11 4.935-11 11s4.935 11 11 11 11-4.935 11-11c0-4.622-2.87-8.581-6.918-10.206l1.286-5.142 14.436 12.65c-.504.78-.804 1.703-.804 2.698 0 2.757 2.243 5 5 5h2.204c1.871 3.664 5.644 6 9.796 6 6.065 0 11-4.935 11-11s-4.935-11-11-11zm-27 11c0 4.962-4.037 9-9 9s-9-4.038-9-9 4.037-9 9-9c.574 0 1.134.06 1.679.163l-1.464 5.859c-.073-.006-.142-.022-.215-.022-1.654 0-3 1.346-3 3s1.346 3 3 3 3-1.346 3-3c0-.85-.359-1.615-.929-2.161l1.521-6.086c3.179 1.39 5.408 4.562 5.408 8.247zm-8 0c0 .551-.448 1-1 1s-1-.449-1-1 .448-1 1-1 1 .449 1 1zm25.204-5h-2.204c-.288 0-.566.038-.841.085l5.82-13.51 3.323 8.07c-2.606.932-4.805 2.824-6.098 5.355zm6.865-3.49 1.438 3.49h-5.974c1.098-1.638 2.694-2.854 4.536-3.49zm-8.069-14.51c0-.551.448-1 1-1h6c.552 0 1 .449 1 1s-.448 1-1 1h-6c-.552 0-1-.449-1-1zm-4.203 18.514-13.139-11.514h18.099zm.203 4.486c0-1.654 1.346-3 3-3h12c1.654 0 3 1.346 3 3s-1.346 3-3 3h-12c-1.654 0-3-1.346-3-3zm15 9c-3.036 0-5.815-1.535-7.467-4h7.467c2.757 0 5-2.243 5-5 0-2.518-1.877-4.586-4.301-4.929l-1.647-4.001c.314-.033.627-.07.948-.07 4.963 0 9 4.038 9 9s-4.037 9-9 9z"/><path d="m9 11c2.757 0 5-2.243 5-5s-2.243-5-5-5-5 2.243-5 5 2.243 5 5 5zm0-8c1.654 0 3 1.346 3 3s-1.346 3-3 3-3-1.346-3-3 1.346-3 3-3z"/><path d="m3 28h4v2h-4z"/><path d="m7 34h4v2h-4z"/><path d="m57 28h4v2h-4z"/><path d="m53 34h4v2h-4z"/></g></svg>