<svg id="Layer_3" enable-background="new 0 0 64 64" height="512" viewBox="0 0 64 64" width="512" xmlns="http://www.w3.org/2000/svg"><g><path d="m61 44v7.586l-8-8v-17.586c0-2.414-1.721-4.434-4-4.899v-7.101c0-.552-.448-1-1-1h-1v-7c0-.552-.448-1-1-1h-9v-3c0-.552-.448-1-1-1h-18c-.552 0-1 .448-1 1v3h-3c-.552 0-1 .448-1 1v1.586l-5.414 5.414h-1.586c-.552 0-1 .448-1 1v7.101c-2.279.465-4 2.485-4 4.899v28c0 .552.448 1 1 1h7.059c.5 4.493 4.317 8 8.941 8s8.441-3.507 8.941-8h4.059v2h-1c-.552 0-1 .448-1 1v4c0 .552.448 1 1 1h22c.552 0 1-.448 1-1v-4c0-.552-.448-1-1-1h-1v-2h1 9v6h-4v2h5c.552 0 1-.448 1-1v-18zm-1.414 9h-6.586v-6.586zm-14.586-40h-1c-.552 0-1 .448-1 1v3h-8v-7c0-.552-.448-1-1-1h-1v-2h12zm-18-2h2v2h-2zm-1 4h4c.552 0 1-.448 1-1v-3h2v6h-10v-6h2v3c0 .552.448 1 1 1zm-7-12h16v2h-3c-.552 0-1 .448-1 1v3h-2v-3c0-.552-.448-1-1-1h-9zm8 4v2h-5c-.552 0-1 .448-1 1v7h-6v-10zm-14 10h-2v-3c0-.43-.275-.789-.656-.93l2.656-2.656zm-4-2v3c0 .552.448 1 1 1h34c.552 0 1-.448 1-1v-3h2v6h-40v-6zm9 46c-3.86 0-7-3.14-7-7s3.14-7 7-7 7 3.14 7 7-3.14 7-7 7zm17-20h2v4h-2zm0 6h3c.552 0 1-.448 1-1v-6c0-.552-.448-1-1-1h-3v-6h12v20h-12zm16 14h-20v-2h20zm-2-4h-16v-2h16zm2-4h-2v-21c0-.552-.448-1-1-1h-14c-.552 0-1 .448-1 1v21h-6.059c-.5-4.493-4.317-8-8.941-8s-8.441 3.507-8.941 8h-6.059v-27c0-1.654 1.346-3 3-3h42c1.654 0 3 1.346 3 3z"/><path d="m30 37h-1v-11c0-.552-.448-1-1-1h-20c-.552 0-1 .448-1 1v11h-1c-.552 0-1 .448-1 1v4c0 .552.448 1 1 1h24c.552 0 1-.448 1-1v-4c0-.552-.448-1-1-1zm-3 0h-8v-10h8zm-18-10h8v10h-8zm20 14h-22v-2h22z"/><path d="m18 49c-2.757 0-5 2.243-5 5s2.243 5 5 5 5-2.243 5-5-2.243-5-5-5zm0 8c-1.654 0-3-1.346-3-3s1.346-3 3-3 3 1.346 3 3-1.346 3-3 3z"/><path d="m21 31h2v2h-2z"/><path d="m13 31h2v2h-2z"/></g></svg>