<svg id="Layer_3" enable-background="new 0 0 64 64" height="512" viewBox="0 0 64 64" width="512" xmlns="http://www.w3.org/2000/svg"><g><path d="m36.707 35.293c-.187-.188-.441-.293-.707-.293h-1v-6h2v1c0 .552.447 1 1 1h8c.553 0 1-.448 1-1v-6c0-.552-.447-1-1-1h-3v-1c0-.552-.447-1-1-1h-8c-.553 0-1 .448-1 1v13c-.266 0-.52.105-.707.293l-3.707 3.707h-1.586c-.266 0-.52.105-.707.293l-11.707 11.707h-2.586c-.266 0-.52.105-.707.293l-10 10c-.286.286-.372.716-.217 1.09.154.373.52.617.924.617h60c.404 0 .77-.244.924-.617.155-.374.069-.804-.217-1.09zm-1.707-12.293h6v1c0 .552.447 1 1 1h3v4h-6v-1c0-.552-.447-1-1-1h-3zm-30.586 38 8-8h11.586c.266 0 .52-.105.707-.293l3.707-3.707h3.172l3.707 3.707c.187.188.441.293.707.293h3.586l8 8zm46 0-9.707-9.707c-.187-.188-.441-.293-.707-.293h-3.586l-3.707-3.707c-.187-.188-.441-.293-.707-.293h-4c-.266 0-.52.105-.707.293l-3.707 3.707h-6.172l10-10h1.586c.266 0 .52-.105.707-.293l3.707-3.707h2.172l24 24z"/><path d="m42 17c1.239 0 2.412-.466 3.311-1.264.707 1.904 2.543 3.264 4.689 3.264 1.149 0 2.237-.386 3.121-1.099 1.321.301 2.731-.116 3.68-1.048.391.098.793.147 1.199.147 2.757 0 5-2.243 5-5s-2.243-5-5-5c-.361 0-.723.042-1.077.122-.416-2.34-2.465-4.122-4.923-4.122-2.415 0-4.436 1.721-4.899 4.001-.91-.02-1.742.254-2.446.771-.794-.502-1.71-.772-2.655-.772-2.757 0-5 2.243-5 5s2.243 5 5 5zm0-8c.75 0 1.472.288 2.034.81.201.187.471.285.742.266.272-.017.527-.145.703-.354.53-.628 1.308-.914 2.2-.592.315.113.669.061.939-.14.27-.202.419-.526.398-.862 0-.026-.012-.101-.016-.128 0-1.654 1.346-3 3-3s3 1.346 3 3c0 .143-.024.28-.048.437-.059.384.11.766.433.981.322.215.741.225 1.073.024.485-.293 1.005-.442 1.542-.442 1.654 0 3 1.346 3 3s-1.346 3-3 3c-.392 0-.777-.077-1.146-.229-.436-.181-.939-.031-1.207.359-.518.755-1.521 1.078-2.399.721-.377-.153-.812-.062-1.096.231-.572.592-1.337.918-2.152.918-1.654 0-3-1.346-3.001-2.955.005-.036.017-.155.018-.191.015-.438-.258-.833-.672-.977-.089-.031-.174-.069-.258-.111-.142-.073-.298-.11-.455-.11-.11 0-.222.019-.329.056-.258.09-.468.281-.581.529-.488 1.069-1.556 1.759-2.722 1.759-1.654 0-3-1.346-3-3s1.346-3 3-3z"/><path d="m6 26c.406 0 .808-.049 1.199-.147.949.932 2.364 1.349 3.68 1.048.885.713 1.972 1.099 3.121 1.099 2.147 0 3.982-1.36 4.689-3.264.899.798 2.072 1.264 3.311 1.264 2.757 0 5-2.243 5-5s-2.243-5-5-5c-.945 0-1.861.27-2.654.773-.704-.518-1.545-.805-2.446-.771-.464-2.281-2.485-4.002-4.9-4.002-2.458 0-4.507 1.782-4.923 4.122-.354-.08-.716-.122-1.077-.122-2.757 0-5 2.243-5 5s2.243 5 5 5zm0-8c.537 0 1.057.149 1.542.443.334.201.749.181 1.072-.033.322-.215.489-.607.432-.99-.022-.139-.046-.276-.046-.42 0-1.654 1.346-3 3-3s3 1.346 3 2.967c-.004.027-.016.135-.018.162-.021.336.129.66.398.862.27.202.623.254.939.14.895-.321 1.67-.037 2.2.592.176.209.431.337.703.354.273.017.542-.079.742-.266.564-.523 1.286-.811 2.036-.811 1.654 0 3 1.346 3 3s-1.346 3-3 3c-1.165 0-2.233-.691-2.723-1.76-.113-.249-.323-.439-.581-.529-.258-.089-.542-.069-.783.054-.084.042-.169.08-.258.111-.414.144-.687.54-.672.977.002.066.009.129.017.147 0 1.654-1.346 3-3 3-.815 0-1.58-.326-2.152-.918-.191-.199-.453-.305-.719-.305-.127 0-.255.024-.377.074-.874.358-1.882.035-2.399-.721-.269-.391-.772-.539-1.207-.359-.369.152-.754.229-1.146.229-1.654 0-3-1.346-3-3s1.346-3 3-3z"/><path d="m28 13c3.309 0 6-2.691 6-6s-2.691-6-6-6-6 2.691-6 6 2.691 6 6 6zm0-10c2.206 0 4 1.794 4 4s-1.794 4-4 4-4-1.794-4-4 1.794-4 4-4z"/></g></svg>