<svg id="Layer_3" enable-background="new 0 0 64 64" height="512" viewBox="0 0 64 64" width="512" xmlns="http://www.w3.org/2000/svg"><g><path d="m61.456 26.311-7.456-5.8v-18.511c0-.553-.448-1-1-1h-11c-.265 0-.52.105-.707.293l-9.293 9.293-9.293-9.293c-.187-.188-.442-.293-.707-.293h-12c-.552 0-1 .447-1 1v18.546l-6.634 5.805c-.868.759-1.366 1.856-1.366 3.01v32.639c0 .553.448 1 1 1h60c.552 0 1-.447 1-1v-32.533c0-1.243-.563-2.394-1.544-3.156zm-30.456 10.689h-28v-4h28zm-27.317-9.144 6.976-6.104c.216-.19.341-.464.341-.752v-18h10.586l9.414 9.414v18.586h-28v-1.639c0-.577.249-1.126.683-1.505zm-.683 11.144h28v22h-28zm58 22h-28v-48.586l9.414-9.414h9.586v18c0 .309.143.6.386.789l7.842 6.1c.491.382.772.957.772 1.578z"/><path d="m28 43h-22c-.552 0-1 .447-1 1v14c0 .553.448 1 1 1h22c.552 0 1-.447 1-1v-14c0-.553-.448-1-1-1zm-1 2v2h-20v-2zm-6 4h2v1c0 .552-.449 1-1 1s-1-.448-1-1zm-14 8v-8h12v1c0 1.654 1.346 3 3 3s3-1.346 3-3v-1h2v8z"/><path d="m58 43h-22c-.552 0-1 .447-1 1v14c0 .553.448 1 1 1h22c.552 0 1-.447 1-1v-14c0-.553-.448-1-1-1zm-1 2v2h-20v-2zm-6 4h2v1c0 .552-.449 1-1 1s-1-.448-1-1zm-14 8v-8h12v1c0 1.654 1.346 3 3 3s3-1.346 3-3v-1h2v8z"/><path d="m38 41h18c.552 0 1-.447 1-1v-12c0-.553-.448-1-1-1h-18c-.552 0-1 .447-1 1v12c0 .553.448 1 1 1zm1-12h16v10h-16z"/><path d="m16 25h10c.552 0 1-.447 1-1v-10c0-.553-.448-1-1-1h-10c-.552 0-1 .447-1 1v10c0 .553.448 1 1 1zm1-2v-6.586l2.293 2.293c.187.188.442.293.707.293h2c.265 0 .52-.105.707-.293l2.293-2.293v6.586zm1.414-8h5.172l-2 2h-1.172z"/></g></svg>