<svg id="Layer_3" enable-background="new 0 0 64 64" height="512" viewBox="0 0 64 64" width="512" xmlns="http://www.w3.org/2000/svg"><g><path d="m41 14c2.206 0 4-1.794 4-4s-1.794-4-4-4-4 1.794-4 4 1.794 4 4 4zm0-6c1.103 0 2 .897 2 2s-.897 2-2 2-2-.897-2-2 .897-2 2-2z"/><path d="m40 2h2v2h-2z"/><path d="m40 16h2v2h-2z"/><path d="m47 9h2v2h-2z"/><path d="m33 9h2v2h-2z"/><path d="m44.586 4h2.828v2h-2.828z" transform="matrix(.707 -.707 .707 .707 9.938 33.991)"/><path d="m35 3.586h2v2.828h-2z" transform="matrix(.707 -.707 .707 .707 7.009 26.92)"/><path d="m45 13.586h2v2.828h-2z" transform="matrix(.707 -.707 .707 .707 2.867 36.92)"/><path d="m34.586 14h2.828v2h-2.828z" transform="matrix(.707 -.707 .707 .707 -.062 29.849)"/><path d="m62 22h-3c-.265 0-.52.105-.707.293l-.293.293v-2.718c.325.085.66.132 1 .132 2.206 0 4-1.794 4-4 0-1.091-.453-2.12-1.225-2.863.148-.358.225-.742.225-1.137 0-1.306-.838-2.419-2.005-2.83.004-.057.005-.113.005-.17 0-1.654-1.346-3-3-3s-3 1.346-3 3c0 .057.001.113.005.17-1.167.411-2.005 1.524-2.005 2.83 0 .395.077.779.225 1.137-.772.743-1.225 1.772-1.225 2.863 0 2.206 1.794 4 4 4 .34 0 .675-.047 1-.132v4.718l-.414.414h-33.586v-3.132c.325.085.66.132 1 .132 2.206 0 4-1.794 4-4 0-1.091-.453-2.12-1.225-2.863.148-.358.225-.742.225-1.137 0-1.306-.838-2.419-2.005-2.83.004-.057.005-.113.005-.17 0-1.654-1.346-3-3-3s-3 1.346-3 3c0 .057.001.113.005.17-1.167.411-2.005 1.524-2.005 2.83 0 .395.077.779.225 1.137-.772.743-1.225 1.772-1.225 2.863 0 2.206 1.794 4 4 4 .34 0 .675-.047 1-.132v3.132h-1.586l-2.707-2.707c-.187-.188-.442-.293-.707-.293h-7v-2.132c.325.085.66.132 1 .132 2.206 0 4-1.794 4-4 0-1.091-.453-2.12-1.225-2.863.148-.358.225-.742.225-1.137 0-1.306-.838-2.419-2.005-2.83.004-.057.005-.113.005-.17 0-1.654-1.346-3-3-3s-3 1.346-3 3c0 .057.001.113.005.17-1.167.411-2.005 1.524-2.005 2.83 0 .395.077.779.225 1.137-.772.743-1.225 1.772-1.225 2.863 0 2.206 1.794 4 4 4 .34 0 .675-.047 1-.132v2.718l-2.707 2.707c-.188.187-.293.441-.293.707v3h-1c-.552 0-1 .447-1 1v32c0 .553.448 1 1 1h60c.552 0 1-.447 1-1v-21-18c0-.553-.448-1-1-1zm-9-6c0-.719.4-1.386 1.043-1.74.272-.15.459-.418.506-.726.046-.307-.052-.618-.267-.843-.182-.189-.282-.435-.282-.691 0-.552.449-1 1-1 .041 0 .08.009.153.02.381.054.762-.117.975-.439s.221-.738.021-1.068c-.099-.164-.149-.337-.149-.513 0-.552.449-1 1-1s1 .448 1 1c0 .176-.05.349-.149.512-.2.33-.176.745.038 1.067s.615.492.992.436c.583-.08 1.119.393 1.119.985 0 .256-.1.502-.282.691-.215.225-.313.536-.267.843.047.308.234.575.506.726.643.354 1.043 1.021 1.043 1.74 0 1.103-.897 2-2 2-.621 0-1.066-.283-1.331-.521-.19-.171-.43-.257-.669-.257s-.479.086-.669.257c-.265.238-.71.521-1.331.521-1.103 0-2-.897-2-2zm-36 2c0-.719.4-1.386 1.043-1.74.272-.15.459-.418.506-.726.046-.307-.052-.618-.267-.843-.182-.189-.282-.435-.282-.691 0-.552.449-1 1-1 .041 0 .08.009.153.02.382.054.762-.117.975-.439s.221-.738.021-1.068c-.099-.164-.149-.337-.149-.513 0-.552.449-1 1-1s1 .448 1 1c0 .176-.05.349-.149.512-.2.33-.176.745.038 1.067.213.321.616.489.992.436.583-.084 1.119.393 1.119.985 0 .256-.1.502-.282.691-.215.225-.313.536-.267.843.047.308.234.575.506.726.643.354 1.043 1.021 1.043 1.74 0 1.103-.897 2-2 2-.621 0-1.066-.283-1.331-.521-.19-.171-.43-.257-.669-.257s-.479.086-.669.257c-.265.238-.71.521-1.331.521-1.103 0-2-.897-2-2zm42.414 6h1.586v16h-6c-.265 0-.52.105-.707.293l-3.293 3.293v-6.172l3.707-3.707c.188-.187.293-.441.293-.707v-4.586zm-34.855 3c3.504 3.646 5.441 8.413 5.441 13.485v1.515h2v-1.515c0-4.969-1.681-9.677-4.765-13.485h8.765v19h2v-19h9.765c-3.084 3.808-4.765 8.516-4.765 13.485v1.515h2v-1.515c0-5.072 1.937-9.839 5.441-13.485h3.145l-.293.293c-.188.187-.293.441-.293.707v4.586l-3.707 3.707c-.188.187-.293.441-.293.707v8.586l-1.707 1.707c-.188.187-.293.441-.293.707v4.586l-.747.747c-.283.108-.56.232-.82.391-.133-.257-.293-.496-.466-.724h.033v-9h-2v7.427c-.616-.274-1.294-.427-2-.427-1.113 0-2.153.37-3 1.014v-2.014h-2v3c-.314 0-.628.032-.944.095-.735-1.036-1.823-1.737-3.056-1.988v-5.107h-2v5.109c-.35.071-.681.186-1 .327v-3.436c0-.266-.105-.52-.293-.707l-2.707-2.707v-6.586c0-.266-.105-.52-.293-.707l-3.707-3.707v-4.586c0-.266-.105-.52-.293-.707l-1.293-1.293zm-21.559-11c0-.719.4-1.386 1.043-1.74.272-.15.459-.418.506-.726.046-.307-.052-.618-.267-.843-.182-.189-.282-.435-.282-.691 0-.552.449-1 1-1 .041 0 .08.009.153.02.38.054.762-.117.975-.439s.221-.738.021-1.068c-.099-.164-.149-.337-.149-.513 0-.552.449-1 1-1s1 .448 1 1c0 .176-.05.349-.149.512-.2.33-.176.745.038 1.067s.615.492.992.436c.579-.08 1.119.393 1.119.985 0 .256-.1.502-.282.691-.215.225-.313.536-.267.843.047.308.234.575.506.726.643.354 1.043 1.021 1.043 1.74 0 1.103-.897 2-2 2-.621 0-1.066-.283-1.331-.521-.19-.171-.43-.257-.669-.257s-.479.086-.669.257c-.265.238-.71.521-1.331.521-1.103 0-2-.897-2-2zm2 10.414 2.414-2.414h7.172l5.414 5.414v4.586c0 .266.105.52.293.707l3.707 3.707v4.172l-9.293-9.293c-.187-.188-.442-.293-.707-.293h-3.586l-3.707-3.707c-.187-.188-.442-.293-.707-.293h-1zm-2 4.586h2.586l3.707 3.707c.187.188.442.293.707.293h3.586l13.414 13.414v4.617c-.45.605-.78 1.305-.92 2.076-1.764.416-3.08 2.004-3.08 3.893 0 .732.212 1.409.556 2h-20.556zm24 30c-1.103 0-2-.897-2-2s.897-2 2-2c.552 0 1-.447 1-1 0-1.654 1.346-3 3-3 1.151 0 2.182.653 2.69 1.704.225.466.77.685 1.253.5.729-.275 1.384-.275 2.112 0 .486.186 1.029-.034 1.253-.5.51-1.051 1.541-1.704 2.692-1.704 1.479 0 2.748 1.111 2.954 2.586.055.391.334.714.715.822.38.11.789-.016 1.042-.319.58-.693 1.414-1.089 2.289-1.089 1.654 0 3 1.346 3 3s-1.346 3-3 3zm34 0h-9.026c.635-.838 1.026-1.87 1.026-3 0-2.421-1.731-4.444-4.02-4.901.004-.034.02-.065.02-.099v-4.586l6.414-6.414h5.586z"/></g></svg>